# This file uses centimeters as units for non-parametric coordinates.

mtllib Roof.mtl
g default
v 300.000000 0.000000 0.000000
v 0.000000 212.886658 0.000000
v 0.000000 212.886658 -300.000000
v 300.000000 0.000000 -300.000000
v 17.691448 218.019119 0.000000
v 17.691448 218.019119 -300.000000
v 310.606659 7.526678 0.000000
v 310.606659 7.526678 -300.000000
v -0.000018 230.706131 0.000000
v -0.000018 230.706131 -300.000000
v 330.146088 -28.405212 -300.000000
v 330.146088 -28.405212 0.000000
v 341.779541 -22.590273 -300.000000
v 341.779541 -22.590273 0.000000
v 353.428009 -50.081215 -300.000000
v 352.376526 -40.021221 -300.000000
v 353.428009 -50.081215 0.000000
v 352.376526 -40.021221 0.000000
v 351.450470 -56.537548 -300.000000
v 349.988525 -56.768391 -300.000000
v 351.450470 -56.537548 0.000000
v 349.988525 -56.768391 0.000000
v 11.758716 230.706161 0.000000
v 14.199722 229.069855 0.000000
v 11.758716 230.706161 -300.000000
v 14.199722 229.069855 -300.000000
v 240.000000 42.577332 0.000000
v 252.023621 49.625168 0.000000
v 252.023621 49.625164 -300.000000
v 240.000000 42.577328 -300.000000
vt 0.961045 0.234801
vt 0.052779 0.565686
vt 0.039802 0.237926
vt 0.999385 0.225411
vt 1.000000 0.759532
vt 1.000000 0.096616
vt 0.992962 0.036617
vt 0.006642 0.039687
vt 1.000000 0.615049
vt 1.000000 0.513335
vt 0.961326 0.107816
vt 0.038738 0.111105
vt 0.042544 0.004765
vt 0.000000 0.490827
vt 0.977146 0.011195
vt 1.000000 0.490827
vt 0.956858 0.002319
vt 0.000017 0.000000
vt 0.947219 0.565860
vt 0.999983 0.087815
vt 0.052789 0.512558
vt 0.017731 0.512551
vt 0.999969 0.550568
vt 0.999992 0.038824
vt 0.000010 0.038630
vt 0.982288 0.512739
vt 0.000000 0.961874
vt 0.069996 0.986690
vt 0.000000 0.980959
vt 1.000000 0.980959
vt 0.000000 0.547051
vt 1.000000 0.547051
vt 0.000000 0.615049
vt 0.000000 0.100113
vt 0.000000 0.759532
vt 0.001414 0.228784
vt 1.000000 0.961874
vt 1.000000 0.000194
vt 0.959707 0.952191
vt 0.000035 0.550374
vt 0.999991 0.048620
vt 0.989565 0.517619
vt 0.010452 0.517429
vt 0.000008 0.048426
vt 0.038703 0.002493
vt 0.022298 0.013941
vt 0.000000 0.513335
vt 1.000000 0.000000
vt 0.994345 0.445497
vt 0.000000 1.000000
vt 0.007461 0.446533
vt 1.000000 1.000000
vt 0.046450 0.461689
vt 0.094507 0.203959
vt 0.955422 0.461130
vt 1.000000 0.000000
vt 0.044372 0.205807
vt 0.924787 0.171668
vt 0.000000 0.000000
vt 0.000000 0.000000
vt 0.906727 0.203959
vt 0.906727 1.000713
vt 0.094507 1.000713
vt 1.000000 0.485893
vt 0.000000 0.485893
vt 0.960677 0.000000
vt -0.000000 0.087621
vt 0.947230 0.512732
vn 0.602311 0.798262 0.000000
vn 0.602311 0.798262 0.000000
vn 0.583562 0.812068 -0.000000
vn 0.583562 0.812068 -0.000000
vn -0.000003 1.000000 0.000000
vn -0.000003 1.000000 0.000000
vn -0.000003 1.000000 0.000000
vn -0.000003 1.000000 0.000000
vn 0.000000 0.000000 1.000000
vn 0.000000 0.000000 1.000000
vn 0.000000 0.000000 1.000000
vn 0.000000 0.000000 1.000000
vn 0.956153 -0.292866 0.000000
vn 0.956153 -0.292866 0.000000
vn 0.956153 -0.292866 0.000000
vn 0.956153 -0.292866 0.000000
vn -0.000000 0.000000 -1.000000
vn -0.000000 0.000000 -1.000000
vn -0.000000 0.000000 -1.000000
vn -0.000000 0.000000 -1.000000
vn -1.000000 -0.000001 0.000000
vn -1.000000 -0.000001 0.000000
vn -1.000000 -0.000001 0.000000
vn -1.000000 -0.000001 0.000000
vn 0.000000 0.000000 1.000000
vn 0.000000 0.000000 1.000000
vn 0.953533 0.301290 0.000000
vn 0.953533 0.301290 0.000000
vn -0.000002 0.000000 -1.000000
vn -0.000001 0.000000 -1.000000
vn -0.685780 -0.727809 0.000000
vn -0.685780 -0.727809 0.000000
vn -0.750501 -0.660869 0.000000
vn -0.750501 -0.660869 0.000000
vn -0.000000 0.000000 -1.000000
vn -0.000000 0.000000 -1.000000
vn 0.000000 0.000000 -1.000000
vn 0.000000 0.000000 -1.000000
vn 0.626867 0.779127 -0.000000
vn 0.626867 0.779127 -0.000000
vn 0.751280 0.659984 0.000000
vn 0.751280 0.659984 0.000000
vn 0.000000 0.000000 1.000000
vn 0.000000 0.000000 1.000000
vn 0.000000 0.000000 1.000000
vn 0.000000 0.000000 1.000000
vn -0.819392 -0.573234 0.000000
vn -0.819392 -0.573234 0.000000
vn 0.000000 0.000000 -1.000000
vn 0.000001 0.000000 -1.000000
vn 0.854484 0.519477 0.000000
vn 0.854484 0.519477 0.000000
vn 0.000000 0.000000 1.000000
vn 0.000000 0.000000 1.000000
vn 0.000000 0.000000 1.000000
vn 0.000000 0.000000 1.000000
vn 0.994582 0.103955 0.000000
vn 0.994582 0.103955 0.000000
vn 0.994582 0.103955 0.000000
vn 0.994582 0.103955 0.000000
vn 0.155968 -0.987762 0.000000
vn 0.155968 -0.987762 0.000000
vn 0.155968 -0.987762 0.000000
vn 0.155968 -0.987762 0.000000
vn 0.000006 0.000000 -1.000000
vn 0.000006 0.000000 -1.000000
vn 0.556812 0.830639 0.000000
vn 0.556812 0.830639 0.000000
vn 0.556812 0.830639 0.000000
vn 0.556812 0.830639 0.000000
vn 0.000000 0.000000 1.000000
vn -0.000002 0.000000 -1.000000
vn -0.578717 -0.815528 0.000000
vn -0.578717 -0.815528 0.000000
vn -0.578717 -0.815528 0.000000
vn -0.578717 -0.815528 0.000000
vn -0.578717 -0.815528 0.000000
vn -0.578717 -0.815528 0.000000
s 1
g S_Roof
usemtl initialShadingGroup
f 6/37/1 5/27/2 28/59/3 29/56/4
s off
f 10/20/5 9/67/6 23/44/7 25/41/8
s 2
f 2/62/9 27/61/10 28/58/11 5/39/12
s off
f 21/14/13 19/16/14 15/10/15 17/47/16
s 3
f 29/57/17 30/54/18 3/63/19 6/28/20
s off
f 3/19/21 2/2/22 9/21/23 10/68/24
s 2
f 2/2/9 5/40/12 24/43/25 23/22/26
s 1
f 5/18/2 6/38/1 26/24/27 24/25/28
s 3
f 25/26/29 3/19/19 10/68/30
s 4
f 1/1/31 4/3/32 11/12/33 12/11/34
s 3
f 4/3/35 8/36/36 13/34/37 11/12/38
s 1
f 8/5/39 7/35/40 14/33/41 13/9/42
s 2
f 7/4/43 1/1/44 12/11/45 14/6/46
s 4
f 12/11/34 11/12/33 20/13/47 22/17/48
s 3
f 11/12/38 13/34/37 16/8/49 20/13/50
s 1
f 13/9/42 14/33/41 18/31/51 16/32/52
s 2
f 18/7/53 22/17/54 21/66/55 17/15/56
s off
f 15/10/57 16/32/58 18/31/59 17/47/60
f 20/64/61 19/16/62 21/14/63 22/65/64
s 2
f 14/6/46 12/11/45 22/17/54 18/7/53
s 3
f 20/13/50 16/8/49 15/46/65 19/45/66
s off
f 23/44/67 24/25/68 26/24/69 25/41/70
s 2
f 2/2/9 23/22/26 9/21/71
s 3
f 6/23/20 3/19/19 25/26/29 26/42/72
s 5
f 2/30/73 3/29/74 30/60/75 27/48/76
s 2
f 28/49/11 27/55/10 1/1/44 7/4/43
s 1
f 29/52/4 28/50/3 7/35/40 8/5/39
s 3
f 4/3/35 30/53/18 29/51/17 8/36/36
s 5
f 27/55/76 30/53/75 4/3/77 1/1/78
