# This file uses centimeters as units for non-parametric coordinates.

mtllib Pillar3.mtl
g default
v -12.500000 0.000000 11.250124
v -11.250122 0.000000 12.500000
v -12.500000 300.000000 11.250124
v -11.250122 300.000000 12.500000
v 12.500000 0.000000 11.250124
v 11.250122 0.000000 12.500000
v 12.500000 300.000000 11.250124
v 11.250122 300.000000 12.500000
v -12.500000 300.000000 -11.250124
v -11.250122 300.000000 -12.500000
v -12.500000 0.000000 -11.250124
v -11.250122 0.000000 -12.500000
v 11.250122 300.000000 -12.500000
v 12.500000 300.000000 -11.250124
v 12.500000 0.000000 -11.250124
v 11.250122 0.000000 -12.500000
v -12.500000 153.749619 11.250124
v -12.500000 146.250381 11.250124
v -12.500000 146.250381 -11.250124
v -12.500000 153.749619 -11.250124
v -11.250122 153.749619 -12.500000
v -11.250122 146.250381 -12.500000
v 11.250122 146.250381 -12.500000
v 11.250122 153.749619 -12.500000
v 12.500000 153.749619 -11.250124
v 12.500000 146.250381 -11.250124
v 12.500000 146.250381 11.250124
v 12.500000 153.749619 11.250124
v 11.250122 153.749619 12.500000
v 11.250122 146.250381 12.500000
v -11.250122 146.250381 12.500000
v -11.250122 153.749619 12.500000
v -11.250122 228.749619 12.500000
v -11.250122 221.250381 12.500000
v -12.500000 221.250381 11.250124
v -12.500000 228.749619 11.250124
v -12.500000 221.250381 -11.250124
v -12.500000 228.749619 -11.250124
v -11.250122 221.250381 -12.500000
v -11.250122 228.749619 -12.500000
v 11.250122 221.250381 -12.500000
v 11.250122 228.749619 -12.500000
v 12.500000 221.250381 -11.250124
v 12.500000 228.749619 -11.250124
v 12.500000 221.250381 11.250124
v 12.500000 228.749619 11.250124
v 11.250122 221.250381 12.500000
v 11.250122 228.749619 12.500000
v -12.500000 71.250374 11.250124
v -12.500000 78.749626 11.250124
v -11.250122 78.749626 12.500000
v -11.250122 71.250374 12.500000
v 11.250122 78.749626 12.500000
v 11.250122 71.250374 12.500000
v 12.500000 78.749626 11.250124
v 12.500000 71.250374 11.250124
v 12.500000 78.749626 -11.250124
v 12.500000 71.250374 -11.250124
v 11.250122 78.749626 -12.500000
v 11.250122 71.250374 -12.500000
v -11.250122 78.749626 -12.500000
v -11.250122 71.250374 -12.500000
v -12.500000 78.749626 -11.250124
v -12.500000 71.250374 -11.250124
v -11.473217 152.472229 10.326011
v -11.473217 147.527771 10.326011
v -11.473217 147.527771 -10.326011
v -11.473217 152.472229 -10.326011
v -10.326006 152.472229 -11.473219
v -10.326006 147.527771 -11.473219
v 10.326006 147.527771 -11.473219
v 10.326006 152.472229 -11.473219
v 11.473217 152.472229 -10.326011
v 11.473217 147.527771 -10.326011
v 11.473217 147.527771 10.326011
v 11.473217 152.472229 10.326011
v 10.326006 152.472229 11.473219
v 10.326006 147.527771 11.473219
v -10.326006 147.527771 11.473219
v -10.326006 152.472229 11.473219
v -10.367422 227.228363 11.519238
v -10.289309 222.284729 11.432435
v -11.432439 222.284729 10.289305
v -11.519238 227.228363 10.367429
v -11.519238 72.771645 10.367427
v -11.432439 77.715271 10.289303
v -10.289309 77.715271 11.432433
v -10.367422 72.771645 11.519237
v -11.432323 222.285065 -10.289207
v -11.519121 227.228027 -10.367322
v -10.289309 222.284729 -11.432435
v -10.367422 227.228363 -11.519238
v 10.289207 222.285065 -11.432327
v 10.367321 227.228027 -11.519119
v 11.432439 222.284729 -10.289305
v 11.519238 227.228363 -10.367429
v 11.432323 222.285065 10.289207
v 11.519121 227.228027 10.367322
v 10.289309 222.284729 11.432435
v 10.367422 227.228363 11.519238
v 10.289207 77.714935 11.432325
v 10.367321 72.771973 11.519117
v 11.432439 77.715271 10.289303
v 11.519238 72.771645 10.367427
v 11.432323 77.714935 -10.289207
v 11.519121 72.771973 -10.367320
v 10.289309 77.715271 -11.432433
v 10.367422 72.771645 -11.519237
v -10.289207 77.714935 -11.432325
v -10.367321 72.771973 -11.519117
v -11.432439 77.715271 -10.289303
v -11.519238 72.771645 -10.367427
vt 0.000000 0.400722
vt 0.080931 0.398958
vt 0.976688 0.028048
vt 0.006366 0.121050
vt 0.185861 0.473252
vt 0.181814 0.477299
vt 0.108958 0.477299
vt 0.104911 0.473252
vt 0.263735 0.121002
vt 0.479862 0.354385
vt 0.261622 0.036348
vt 0.481688 0.122343
vt 0.733488 0.353795
vt 0.508852 0.039635
vt 0.724347 0.122494
vt 0.507812 0.124607
vt 0.989346 0.261773
vt 1.000000 0.332378
vt 0.976886 0.033781
vt 0.752163 0.040281
vt 0.977607 0.105870
vt 0.977740 0.111418
vt 0.981834 0.181132
vt 0.750466 0.123992
vt 0.982109 0.186629
vt 0.988796 0.256242
vt 0.004783 0.267260
vt 0.006705 0.196843
vt 0.006670 0.191337
vt 0.237128 0.118952
vt 0.006151 0.115510
vt 0.001042 0.044225
vt 0.104911 0.400396
vt 0.230356 0.348351
vt 0.000000 0.344648
vt 0.004648 0.272819
vt 0.501953 0.352490
vt 0.487960 0.041363
vt 0.502888 0.041598
vt 0.502789 0.125291
vt 0.487009 0.124182
vt 0.755756 0.351114
vt 0.252130 0.347239
vt 0.731913 0.041829
vt 0.746034 0.042209
vt 0.744899 0.124707
vt 0.729177 0.124317
vt 0.243076 0.120612
vt 0.259096 0.121913
vt 0.240795 0.037403
vt 0.481021 0.280623
vt 0.485274 0.351897
vt 0.502542 0.283507
vt 0.507600 0.355389
vt 0.482075 0.044165
vt 0.486859 0.116102
vt 0.503684 0.046749
vt 0.507858 0.119065
vt 0.486573 0.195149
vt 0.507695 0.198347
vt 0.481476 0.201356
vt 0.486240 0.274380
vt 0.502619 0.204581
vt 0.507759 0.277288
vt 0.728378 0.274682
vt 0.733667 0.281811
vt 0.749296 0.274077
vt 0.755697 0.280938
vt 0.261797 0.278237
vt 0.257125 0.270743
vt 0.241035 0.277411
vt 0.235583 0.270088
vt 0.482088 0.038461
vt 0.487517 0.046928
vt 0.502951 0.041127
vt 0.508690 0.045367
vt 0.481697 0.116830
vt 0.502591 0.117177
vt 0.481513 0.195816
vt 0.486797 0.203286
vt 0.502374 0.196435
vt 0.507692 0.203900
vt 0.507791 0.282810
vt 0.502339 0.275453
vt 0.486360 0.282444
vt 0.481114 0.275096
vt 0.728649 0.280170
vt 0.738381 0.350940
vt 0.749954 0.281835
vt 0.762469 0.353652
vt 0.726762 0.038818
vt 0.731140 0.047395
vt 0.746036 0.042081
vt 0.751945 0.045996
vt 0.726439 0.044509
vt 0.729022 0.116065
vt 0.746699 0.047136
vt 0.750525 0.118491
vt 0.724345 0.117024
vt 0.744732 0.116884
vt 0.729782 0.194675
vt 0.751511 0.197086
vt 0.725191 0.195681
vt 0.730253 0.202983
vt 0.745629 0.195520
vt 0.751649 0.202579
vt 0.755368 0.275454
vt 0.746062 0.203360
vt 0.733030 0.273572
vt 0.725348 0.201175
vt 0.261945 0.272770
vt 0.259198 0.200669
vt 0.241223 0.269634
vt 0.237518 0.197316
vt 0.263840 0.199831
vt 0.259013 0.192350
vt 0.243359 0.199130
vt 0.237619 0.191807
vt 0.263848 0.194339
vt 0.243225 0.191277
vt 0.258733 0.113638
vt 0.237075 0.113440
vt 0.263631 0.115513
vt 0.257096 0.044011
vt 0.242748 0.112778
vt 0.234360 0.040617
vt 0.261849 0.042055
vt 0.256720 0.038523
vt 0.240607 0.042636
vt 0.233882 0.034915
vt 0.240482 0.036480
vt 0.235283 0.275590
vt 0.236192 0.346235
vt 0.257027 0.278969
vt 0.256883 0.350477
vt 0.181814 0.396349
vt 0.185861 0.400396
vt 0.108958 0.396349
vt 0.000656 0.038509
vt 0.082518 0.471797
vt 0.078560 0.475931
vt 0.005722 0.477519
vt 0.001587 0.473561
vt 0.003958 0.396588
vt 0.076796 0.395000
vn 0.000000 1.000000 0.000000
vn 0.000000 1.000000 0.000000
vn 0.000000 1.000000 0.000000
vn 0.000000 1.000000 0.000000
vn 0.000000 -1.000000 0.000000
vn 0.000000 -1.000000 0.000000
vn 0.000000 -1.000000 0.000000
vn 0.000000 -1.000000 0.000000
vn 0.000000 1.000000 0.000000
vn 0.000000 1.000000 0.000000
vn 0.000000 1.000000 0.000000
vn 0.000000 1.000000 0.000000
vn 0.000000 -1.000000 0.000000
vn 0.000000 -1.000000 0.000000
vn 0.000000 -1.000000 0.000000
vn 0.000000 -1.000000 0.000000
vn 0.000000 0.009700 0.999953
vn 0.000000 0.009700 0.999953
vn -0.000000 -0.009521 0.999955
vn -0.000000 -0.009521 0.999955
vn 0.000000 -0.009521 -0.999955
vn 0.000000 -0.009521 -0.999955
vn 0.000000 0.009700 -0.999953
vn 0.000000 0.009700 -0.999953
vn 0.999953 0.009700 0.000000
vn 0.999953 0.009700 0.000000
vn 0.999955 -0.009521 0.000000
vn 0.999955 -0.009521 0.000000
vn -0.999953 0.009700 0.000000
vn -0.999953 0.009700 0.000000
vn -0.999955 -0.009520 0.000000
vn -0.999955 -0.009520 0.000000
vn -0.706972 -0.019506 0.706973
vn -0.706972 -0.019506 0.706973
vn -0.706982 0.018780 0.706982
vn -0.706982 0.018780 0.706982
vn 0.706973 -0.019507 0.706972
vn 0.706973 -0.019507 0.706972
vn 0.706982 0.018780 0.706982
vn 0.706982 0.018780 0.706982
vn -0.706982 0.018780 -0.706982
vn -0.706982 0.018780 -0.706982
vn -0.706973 -0.019507 -0.706972
vn -0.706973 -0.019507 -0.706972
vn 0.706982 0.018780 -0.706982
vn 0.706982 0.018780 -0.706982
vn 0.706971 -0.019507 -0.706974
vn 0.706971 -0.019507 -0.706974
vn -0.999955 0.009521 0.000000
vn -0.999955 0.009521 0.000000
vn -0.999953 -0.009700 0.000000
vn -0.999953 -0.009700 0.000000
vn -0.706971 0.019507 -0.706974
vn -0.706971 0.019507 -0.706974
vn -0.706981 -0.018780 -0.706983
vn -0.706981 -0.018780 -0.706983
vn 0.000000 -0.009700 -0.999953
vn 0.000000 -0.009700 -0.999953
vn -0.000000 0.009521 -0.999955
vn -0.000000 0.009521 -0.999955
vn 0.706973 0.019507 -0.706972
vn 0.706973 0.019507 -0.706972
vn 0.706981 -0.018780 -0.706983
vn 0.706981 -0.018780 -0.706983
vn 0.999955 0.009521 -0.000000
vn 0.999955 0.009521 -0.000000
vn 0.999953 -0.009700 0.000000
vn 0.999953 -0.009700 0.000000
vn 0.706981 -0.018780 0.706983
vn 0.706981 -0.018780 0.706983
vn 0.706971 0.019507 0.706974
vn 0.706971 0.019507 0.706974
vn 0.000000 0.009520 0.999955
vn 0.000000 0.009520 0.999955
vn 0.000000 -0.009700 0.999953
vn 0.000000 -0.009700 0.999953
vn -0.706981 -0.018780 0.706983
vn -0.706981 -0.018780 0.706983
vn -0.706972 0.019506 0.706973
vn -0.706972 0.019507 0.706973
vn -0.707003 -0.017034 0.707005
vn -0.707003 -0.017034 0.707005
vn -0.707106 0.000000 0.707107
vn -0.707106 0.000000 0.707107
vn -1.000000 0.000000 0.000000
vn -0.999957 -0.009270 0.000000
vn -0.999957 -0.009270 0.000000
vn -1.000000 0.000000 0.000000
vn -0.707106 0.000000 -0.707107
vn -0.707106 0.000000 -0.707107
vn -0.707003 -0.017035 -0.707005
vn -0.707003 -0.017035 -0.707005
vn -0.000000 -0.009270 -0.999957
vn -0.000000 -0.009270 -0.999957
vn 0.000000 0.000000 -1.000000
vn 0.000000 0.000000 -1.000000
vn 0.707106 0.000000 -0.707107
vn 0.707106 0.000000 -0.707107
vn 0.707004 -0.017035 -0.707004
vn 0.707004 -0.017035 -0.707004
vn 1.000000 0.000000 0.000000
vn 0.999957 -0.009270 -0.000000
vn 0.999957 -0.009270 -0.000000
vn 1.000000 0.000000 0.000000
vn 0.707003 -0.017035 0.707005
vn 0.707003 -0.017035 0.707005
vn 0.707106 0.000000 0.707107
vn 0.707106 0.000000 0.707107
vn 0.000000 0.000000 1.000000
vn 0.000000 -0.009269 0.999957
vn 0.000000 -0.009269 0.999957
vn 0.000000 0.000000 1.000000
vn -0.707106 0.000000 0.707107
vn -0.707106 0.000000 0.707107
vn -0.707004 0.017034 0.707005
vn -0.707004 0.017034 0.707005
vn -0.000000 0.009270 0.999957
vn -0.000000 0.009270 0.999957
vn 0.000000 0.000000 1.000000
vn 0.000000 0.000000 1.000000
vn 0.707106 0.000000 0.707107
vn 0.707106 0.000000 0.707107
vn 0.707004 0.017035 0.707004
vn 0.707004 0.017035 0.707004
vn 0.999957 0.009270 0.000000
vn 0.999957 0.009270 0.000000
vn 1.000000 0.000000 0.000000
vn 1.000000 0.000000 0.000000
vn 0.707003 0.017035 -0.707005
vn 0.707003 0.017035 -0.707005
vn 0.707106 0.000000 -0.707107
vn 0.707106 0.000000 -0.707107
vn 0.000000 0.000000 -1.000000
vn 0.000000 0.009270 -0.999957
vn 0.000000 0.009270 -0.999957
vn 0.000000 0.000000 -1.000000
vn -0.707004 0.017035 -0.707004
vn -0.707004 0.017035 -0.707004
vn -0.707106 0.000000 -0.707107
vn -0.707106 0.000000 -0.707107
vn -0.999957 0.009269 0.000000
vn -0.999957 0.009269 0.000000
vn -1.000000 0.000000 0.000000
vn -1.000000 0.000000 0.000000
vn -0.688515 -0.227797 0.688517
vn -0.688515 0.227797 0.688517
vn -0.688515 0.227797 0.688517
vn -0.688515 -0.227796 0.688517
vn -0.978266 0.207353 0.000000
vn -0.978266 -0.207353 0.000000
vn -0.978266 -0.207353 0.000000
vn -0.978266 0.207353 0.000000
vn -0.688515 0.227797 -0.688517
vn -0.688515 -0.227798 -0.688516
vn -0.688515 -0.227797 -0.688516
vn -0.688515 0.227797 -0.688517
vn 0.000000 0.207352 -0.978266
vn 0.000000 -0.207352 -0.978266
vn 0.000000 -0.207352 -0.978266
vn 0.000000 0.207352 -0.978266
vn 0.688515 0.227797 -0.688517
vn 0.688516 -0.227798 -0.688516
vn 0.688516 -0.227798 -0.688516
vn 0.688515 0.227797 -0.688517
vn 0.978266 0.207353 0.000000
vn 0.978266 -0.207353 0.000000
vn 0.978266 -0.207353 0.000000
vn 0.978266 0.207353 0.000000
vn 0.688515 0.227797 0.688517
vn 0.688515 -0.227798 0.688516
vn 0.688515 -0.227797 0.688516
vn 0.688515 0.227797 0.688517
vn 0.000000 0.207352 0.978266
vn 0.000000 -0.207352 0.978266
vn 0.000000 -0.207352 0.978266
vn 0.000000 0.207352 0.978266
vn 0.000000 -0.198781 0.980044
vn 0.000000 0.216254 0.976337
vn 0.000000 0.216254 0.976337
vn 0.000000 -0.198781 0.980044
vn -0.688444 0.228230 0.688445
vn -0.688758 -0.226313 0.688763
vn -0.688758 -0.226313 0.688763
vn -0.688444 0.228230 0.688445
vn -0.976333 0.216272 -0.000003
vn -0.980041 -0.198795 -0.000003
vn -0.980043 -0.198789 -0.000003
vn -0.976335 0.216262 -0.000003
vn -0.980045 0.198778 0.000000
vn -0.976337 -0.216253 0.000000
vn -0.976337 -0.216253 0.000000
vn -0.980045 0.198778 0.000000
vn -0.688444 -0.228229 0.688445
vn -0.688760 0.226314 0.688761
vn -0.688760 0.226314 0.688761
vn -0.688444 -0.228229 0.688445
vn 0.000003 -0.216272 0.976333
vn 0.000003 0.198794 0.980041
vn 0.000003 0.198788 0.980042
vn 0.000003 -0.216262 0.976335
vn -0.688494 0.228200 -0.688405
vn -0.688808 -0.226293 -0.688720
vn -0.688795 -0.226371 -0.688707
vn -0.688477 0.228299 -0.688389
vn 0.000003 0.216272 -0.976333
vn 0.000003 -0.198794 -0.980041
vn 0.000003 -0.198787 -0.980043
vn 0.000003 0.216262 -0.976335
vn 0.688412 0.228200 -0.688487
vn 0.688722 -0.226292 -0.688806
vn 0.688709 -0.226370 -0.688793
vn 0.688395 0.228298 -0.688470
vn 0.976333 0.216272 0.000003
vn 0.980041 -0.198795 0.000003
vn 0.980043 -0.198789 0.000003
vn 0.976335 0.216262 0.000003
vn 0.688494 0.228200 0.688405
vn 0.688808 -0.226293 0.688720
vn 0.688795 -0.226371 0.688707
vn 0.688477 0.228299 0.688389
vn 0.688408 -0.228199 0.688491
vn 0.688721 0.226292 0.688807
vn 0.688709 0.226369 0.688794
vn 0.688392 -0.228297 0.688475
vn 0.976333 -0.216272 -0.000003
vn 0.980041 0.198794 -0.000003
vn 0.980043 0.198788 -0.000003
vn 0.976335 -0.216262 -0.000003
vn 0.688490 -0.228198 -0.688410
vn 0.688806 0.226293 -0.688722
vn 0.688793 0.226369 -0.688710
vn 0.688473 -0.228297 -0.688393
vn -0.000003 -0.216272 -0.976333
vn -0.000003 0.198794 -0.980041
vn -0.000003 0.198788 -0.980042
vn -0.000003 -0.216262 -0.976335
vn -0.688408 -0.228199 -0.688491
vn -0.688721 0.226292 -0.688807
vn -0.688709 0.226369 -0.688794
vn -0.688392 -0.228297 -0.688475
s 1
g S_Pillar2
usemtl initialShadingGroup
f 13/141/1 8/145/2 7/2/3 14/140/4
s 2
f 6/6/5 16/136/6 15/137/7 5/5/8
s 1
f 10/142/9 4/144/10 8/145/2 13/141/1
f 3/1/11 4/144/10 10/142/9 9/143/12
s 2
f 2/7/13 12/138/14 16/136/6 6/6/5
f 11/33/15 12/138/14 2/7/13 1/8/16
s 3
f 30/61/17 31/86/18 51/111/19 53/115/20
s 4
f 59/123/21 61/127/22 22/55/23 23/77/24
s 5
f 26/12/25 27/79/26 55/119/27 57/9/28
s 6
f 18/51/29 19/10/30 63/135/31 50/69/32
s 7
f 50/69/33 51/111/34 31/86/35 18/51/36
s 8
f 53/115/37 55/119/38 27/79/39 30/61/40
s 9
f 19/73/41 22/55/42 61/127/43 63/11/44
s 10
f 23/77/45 26/12/46 57/9/47 59/123/48
s 6
f 35/87/49 37/13/50 20/54/51 17/83/52
s 9
f 37/91/53 39/95/54 21/76/55 20/14/56
s 4
f 24/58/57 21/76/58 39/95/59 41/99/60
s 10
f 41/99/61 43/15/62 25/16/63 24/58/64
s 5
f 43/15/65 45/103/66 28/60/67 25/16/68
s 8
f 29/82/69 28/60/70 45/103/71 47/110/72
s 3
f 47/110/73 34/65/74 32/64/75 29/82/76
s 7
f 17/83/77 32/64/78 34/65/79 35/87/80
f 36/68/81 33/107/82 4/26/83 3/17/84
s 6
f 9/18/85 38/90/86 36/68/87 3/17/88
s 9
f 9/3/89 10/19/90 40/94/91 38/20/92
s 4
f 42/98/93 40/94/94 10/19/95 13/21/96
s 10
f 13/21/97 14/22/98 44/24/99 42/98/100
s 5
f 7/23/101 46/102/102 44/24/103 14/22/104
s 8
f 48/106/105 46/102/106 7/23/107 8/25/108
s 3
f 4/26/109 33/107/110 48/106/111 8/25/112
s 7
f 1/36/113 2/27/114 52/72/115 49/132/116
s 3
f 54/114/117 52/72/118 2/27/119 6/28/120
s 8
f 6/28/121 5/29/122 56/118/123 54/114/124
s 5
f 58/30/125 56/118/126 5/29/127 15/4/128
s 10
f 60/122/129 58/30/130 15/4/131 16/31/132
s 4
f 12/32/133 62/126/134 60/122/135 16/31/136
s 9
f 64/130/137 62/126/138 12/32/139 11/139/140
s 6
f 49/132/141 64/34/142 11/35/143 1/36/144
s 7
f 65/53/145 66/85/146 79/62/147 80/84/148
s 6
f 66/85/149 65/53/150 68/37/151 67/52/152
s 9
f 67/38/153 68/39/154 69/57/155 70/74/156
s 4
f 70/74/157 69/57/158 72/78/159 71/56/160
s 10
f 71/56/161 72/78/162 73/40/163 74/41/164
s 5
f 74/41/165 73/40/166 76/81/167 75/59/168
s 8
f 75/59/169 76/81/170 77/63/171 78/80/172
s 3
f 78/80/173 77/63/174 80/84/175 79/62/176
f 81/67/177 82/109/178 99/104/179 100/108/180
s 7
f 82/109/181 81/67/182 84/89/183 83/66/184
s 6
f 83/66/185 84/89/186 90/42/187 89/88/188
f 85/71/189 86/134/190 111/43/191 112/133/192
s 7
f 86/134/193 85/71/194 88/113/195 87/70/196
s 3
f 87/70/197 88/113/198 102/117/199 101/112/200
s 9
f 89/44/201 90/45/202 92/97/203 91/92/204
s 4
f 91/92/205 92/97/206 94/100/207 93/96/208
s 10
f 93/96/209 94/100/210 96/46/211 95/47/212
s 5
f 95/47/213 96/46/214 98/105/215 97/101/216
s 8
f 97/101/217 98/105/218 100/108/219 99/104/220
f 101/112/221 102/117/222 104/120/223 103/116/224
s 5
f 103/116/225 104/120/226 106/48/227 105/49/228
s 10
f 105/49/229 106/48/230 108/125/231 107/121/232
s 4
f 107/121/233 108/125/234 110/129/235 109/124/236
s 9
f 109/124/237 110/129/238 112/50/239 111/128/240
s 6
f 18/51/29 66/85/149 67/52/152 19/10/30
f 65/53/150 17/83/52 20/54/51 68/37/151
s 4
f 22/55/23 70/74/157 71/56/160 23/77/24
f 69/57/158 21/76/58 24/58/57 72/78/159
s 5
f 26/12/25 74/41/165 75/59/168 27/79/26
f 73/40/166 25/16/68 28/60/67 76/81/167
s 3
f 30/61/17 78/80/173 79/62/176 31/86/18
f 77/63/174 29/82/76 32/64/75 80/84/175
s 7
f 34/65/79 82/109/181 83/66/184 35/87/80
f 81/67/182 33/107/82 36/68/81 84/89/183
f 50/69/33 86/134/193 87/70/196 51/111/34
f 85/71/194 49/132/116 52/72/115 88/113/195
s 9
f 19/73/41 67/38/153 70/74/156 22/55/42
f 68/75/154 20/14/56 21/76/55 69/57/155
s 10
f 23/77/45 71/56/161 74/41/164 26/12/46
f 72/78/162 24/58/64 25/16/63 73/40/163
s 8
f 27/79/39 75/59/169 78/80/172 30/61/40
f 76/81/170 28/60/70 29/82/69 77/63/171
s 7
f 17/83/77 65/53/145 80/84/148 32/64/78
f 66/85/146 18/51/36 31/86/35 79/62/147
s 6
f 35/87/49 83/66/185 89/88/188 37/13/50
f 84/89/186 36/68/87 38/90/86 90/42/187
s 9
f 37/91/53 89/44/201 91/92/204 39/95/54
f 90/93/202 38/20/92 40/94/91 92/97/203
s 4
f 39/95/59 91/92/205 93/96/208 41/99/60
f 92/97/206 40/94/94 42/98/93 94/100/207
s 10
f 41/99/61 93/96/209 95/47/212 43/15/62
f 94/100/210 42/98/100 44/24/99 96/46/211
s 5
f 43/15/65 95/47/213 97/101/216 45/103/66
f 96/46/214 44/24/103 46/102/102 98/105/215
s 8
f 45/103/71 97/101/217 99/104/220 47/110/72
f 98/105/218 46/102/106 48/106/105 100/108/219
s 3
f 33/107/110 81/67/177 100/108/180 48/106/111
f 82/109/178 34/65/74 47/110/73 99/104/179
f 51/111/19 87/70/197 101/112/200 53/115/20
f 88/113/198 52/72/118 54/114/117 102/117/199
s 8
f 53/115/37 101/112/221 103/116/224 55/119/38
f 102/117/222 54/114/124 56/118/123 104/120/223
s 5
f 55/119/27 103/116/225 105/49/228 57/9/28
f 104/120/226 56/118/126 58/30/125 106/48/227
s 10
f 57/9/47 105/49/229 107/121/232 59/123/48
f 106/48/230 58/30/130 60/122/129 108/125/231
s 4
f 59/123/21 107/121/233 109/124/236 61/127/22
f 108/125/234 60/122/135 62/126/134 110/129/235
s 9
f 61/127/43 109/124/237 111/128/240 63/11/44
f 110/129/238 62/126/138 64/130/137 112/131/239
s 6
f 49/132/141 85/71/189 112/133/192 64/34/142
f 86/134/190 50/69/32 63/135/31 111/43/191
