# This file uses centimeters as units for non-parametric coordinates.

mtllib WallSmall.mtl
g default
v 0.000000 0.000000 0.000000
v 300.000000 0.000000 0.000000
v 0.000000 300.000000 0.000000
v 300.000000 300.000000 0.000000
v 0.000000 300.000000 -20.000000
v 300.000000 300.000000 -20.000000
v 0.000000 0.000000 -20.000000
v 300.000000 0.000000 -20.000000
v 0.000000 220.000000 0.000000
v 300.000000 220.000000 0.000000
v 300.000000 220.000000 -20.000000
v 0.000000 220.000000 -20.000000
v 120.000000 0.000000 0.000000
v 120.000000 0.000000 -20.000000
v 120.000000 220.000000 -20.000000
v 120.000000 300.000000 -20.000000
v 120.000000 300.000000 0.000000
v 120.000000 220.000000 0.000000
v 180.000000 0.000000 0.000000
v 180.000000 220.000000 0.000000
v 180.000000 300.000000 0.000000
v 180.000000 300.000000 -20.000000
v 180.000000 220.000000 -20.000000
v 180.000000 0.000000 -20.000000
v 0.000000 120.000000 0.000000
v 120.000000 119.999985 0.000000
v 180.000000 119.999985 0.000000
v 300.000000 120.000000 0.000000
v 300.000000 119.999985 -20.000000
v 180.000000 120.000000 -20.000000
v 120.000000 119.999985 -20.000000
v 0.000000 119.999985 -20.000000
vt 1.000000 0.000000
vt 1.000000 0.000000
vt 0.000000 0.000000
vt 0.000000 1.000000
vt 1.000000 1.000000
vt 1.000000 0.066667
vt 0.000000 0.933333
vt 0.000000 0.000000
vt 0.000000 1.000000
vt 1.000000 1.000000
vt 0.066667 0.000000
vt 0.066667 1.000000
vt 0.933333 0.000000
vt 0.933333 1.000000
vt 0.000000 0.000000
vt 1.000000 1.000000
vt 1.000000 0.000000
vt 0.000000 0.000000
vt 0.000000 1.000000
vt 1.000000 1.000000
vt 1.000000 0.000000
vt 1.000000 0.933333
vt 0.000000 0.066667
vt 0.000000 1.000000
vt 1.000000 0.730665
vt 0.000000 0.733333
vt 1.000000 0.733333
vt 0.000000 0.730665
vt 0.000000 0.733333
vt 0.066667 0.730665
vt 0.933333 0.730665
vt 1.000000 0.733333
vt 0.400000 0.000000
vt 0.400313 1.000000
vt 0.400313 0.933333
vt 0.600000 0.000000
vt 0.062500 0.000000
vt 0.600000 1.000000
vt 0.400313 0.066667
vt 0.400313 0.000000
vt 0.400000 1.000000
vt 0.000000 1.000000
vt 0.600000 0.000000
vt 0.599016 1.000000
vt 0.000000 0.187500
vt 0.599016 0.000000
vt 0.600000 1.000000
vt 0.400000 1.000000
vt 0.599016 0.066667
vt 0.062500 0.187500
vt 0.599016 0.933333
vt 0.400000 0.000000
vt 1.000000 0.402770
vt 0.000000 0.400000
vt 0.000000 0.687500
vt 0.000000 0.500000
vt 1.000000 0.400000
vt 0.000000 0.402770
vt 0.000000 0.400000
vt 0.066667 0.402770
vt 0.062500 0.500000
vt 0.062500 0.687500
vt 0.933333 0.402770
vt 1.000000 0.400000
vt 0.400000 0.400000
vt 0.600000 0.400000
vt 0.400000 0.400000
vt 0.600000 0.400000
vt 0.600000 0.733333
vt 0.600000 0.733333
vt 0.400000 0.733333
vt 0.400000 0.733333
vt 0.000000 0.000000
vt 0.062500 1.000000
vn 0.000000 0.000000 1.000000
vn 0.000000 0.000000 1.000000
vn 0.000000 0.000000 1.000000
vn 0.000000 0.000000 1.000000
vn 0.000000 1.000000 0.000000
vn 0.000000 1.000000 0.000000
vn 0.000000 1.000000 0.000000
vn 0.000000 1.000000 0.000000
vn 0.000000 0.000000 -1.000000
vn 0.000000 0.000000 -1.000000
vn 0.000000 0.000000 -1.000000
vn 0.000000 0.000000 -1.000000
vn 0.000000 -1.000000 0.000000
vn 0.000000 -1.000000 0.000000
vn 0.000000 -1.000000 0.000000
vn 0.000000 -1.000000 0.000000
vn 1.000000 0.000000 0.000000
vn 1.000000 0.000000 0.000000
vn 1.000000 0.000000 0.000000
vn 1.000000 0.000000 0.000000
vn -1.000000 0.000000 0.000000
vn -1.000000 0.000000 0.000000
vn -1.000000 0.000000 0.000000
vn -1.000000 0.000000 0.000000
vn 1.000000 0.000000 0.000000
vn 1.000000 0.000000 0.000000
vn -1.000000 0.000000 0.000000
vn -1.000000 0.000000 0.000000
vn 0.000000 -1.000000 0.000000
vn 0.000000 -1.000000 0.000000
vn 0.000000 0.000000 -1.000000
vn 0.000000 0.000000 -1.000000
vn 0.000000 0.000000 -1.000000
vn 0.000000 0.000000 -1.000000
vn 0.000000 1.000000 0.000000
vn 0.000000 1.000000 0.000000
vn 0.000000 0.000000 1.000000
vn 0.000000 0.000000 1.000000
vn 0.000000 0.000000 1.000000
vn 0.000000 0.000000 1.000000
vn 0.000000 0.000000 1.000000
vn 0.000000 0.000000 1.000000
vn 0.000000 0.000000 1.000000
vn 0.000000 0.000000 1.000000
vn 0.000000 1.000000 0.000000
vn 0.000000 1.000000 0.000000
vn 0.000000 0.000000 -1.000000
vn 0.000000 0.000000 -1.000000
vn 0.000000 0.000000 -1.000000
vn 0.000000 0.000000 -1.000000
vn 0.000000 -1.000000 0.000000
vn 0.000000 -1.000000 0.000000
vn 0.000000 0.000000 1.000000
vn 0.000000 0.000000 1.000000
vn 0.000000 0.000000 1.000000
vn 0.000000 0.000000 1.000000
vn 1.000000 0.000000 0.000000
vn 1.000000 0.000000 0.000000
vn 0.000000 0.000000 -1.000000
vn 0.000000 0.000000 -1.000000
vn 0.000000 0.000000 -1.000000
vn 0.000000 0.000000 -1.000000
vn -1.000000 0.000000 0.000000
vn -1.000000 0.000000 0.000000
vn 0.000000 -1.000000 0.000000
vn 0.000000 -1.000000 0.000000
vn 0.000000 -1.000000 0.000000
vn 0.000000 -1.000000 0.000000
vn -0.000000 1.000000 0.000000
vn -0.000000 1.000000 0.000000
vn -0.000000 1.000000 0.000000
vn -0.000000 1.000000 0.000000
vn 1.000000 0.000000 0.000000
vn 1.000000 0.000000 0.000000
vn 1.000000 0.000000 0.000000
vn 1.000000 0.000000 0.000000
vn -1.000000 0.000000 0.000000
vn -1.000000 0.000000 0.000000
vn -1.000000 0.000000 0.000000
vn -1.000000 0.000000 0.000000
s 1
g S_Wall_SmallWindow
usemtl initialShadingGroup
f 20/70/1 21/47/2 17/41/3 18/72/4
s 2
f 21/46/5 22/49/6 16/39/7 17/40/8
s 3
f 22/48/9 23/71/10 15/69/11 16/38/12
s 4
f 24/51/13 19/44/14 13/34/15 14/35/16
s 5
f 10/28/17 11/30/18 6/12/19 4/4/20
s 6
f 12/31/21 9/25/22 3/20/23 5/14/24
s 5
f 28/58/25 29/60/26 11/30/18 10/28/17
s 6
f 32/63/27 25/53/28 9/25/22 12/31/21
s 4
f 7/7/29 14/35/16 13/34/15 1/9/30
s 3
f 12/32/31 15/69/11 31/66/32 32/64/33
f 5/5/34 16/38/12 15/69/11 12/32/31
s 2
f 3/3/35 17/40/8 16/39/7 5/23/36
s 1
f 9/26/37 18/72/4 17/41/3 3/19/38
f 25/54/39 26/67/40 18/72/4 9/26/37
f 10/27/41 20/70/1 27/68/42 28/57/43
f 21/47/2 20/70/1 10/27/41 4/16/44
s 2
f 22/49/6 21/46/5 4/17/45 6/6/46
s 3
f 11/29/47 23/71/10 22/48/9 6/24/48
f 29/59/49 30/65/50 23/71/10 11/29/47
s 4
f 19/44/14 24/51/13 8/22/51 2/10/52
s 1
f 1/18/53 13/33/54 26/67/40 25/54/39
f 13/33/54 19/43/55 27/68/42 26/67/40
f 28/57/43 27/68/42 19/43/55 2/2/56
s 5
f 2/15/57 8/11/58 29/60/26 28/58/25
s 3
f 24/52/59 30/65/50 29/59/49 8/8/60
f 30/65/50 24/52/59 14/36/61 31/66/32
f 32/64/33 31/66/32 14/36/61 7/21/62
s 6
f 7/13/63 1/1/64 25/53/28 32/63/27
s off
f 20/45/65 18/73/66 15/37/67 23/50/68
f 26/55/69 27/56/70 30/61/71 31/62/72
f 18/42/73 26/55/74 31/62/75 15/74/76
f 23/50/77 30/61/78 27/56/79 20/45/80
