# This file uses centimeters as units for non-parametric coordinates.

mtllib Foundation.mtl
g default
v 0.000000 0.000000 0.000000
v 300.000000 0.000000 0.000000
v 0.000000 40.000000 0.000000
v 300.000000 40.000000 0.000000
v 0.000000 40.000000 -300.000000
v 300.000000 40.000000 -300.000000
v 0.000000 0.000000 -300.000000
v 300.000000 0.000000 -300.000000
vt 0.133333 1.000000
vt 1.000000 0.866667
vt 0.000000 0.000000
vt 1.000000 1.000000
vt -0.000000 0.000000
vt 1.000000 1.000000
vt 0.000000 0.000000
vt 1.000000 0.133333
vt 0.000000 1.000000
vt 1.000000 1.000000
vt 0.866667 0.000000
vt 1.000000 0.000000
vt 0.133333 0.000000
vt 0.000000 0.000000
vt 0.866667 1.000000
vt 1.000000 1.000000
vt 0.000000 0.866667
vt 0.000000 1.000000
vt -0.000000 0.133333
vt 1.000000 0.000000
vt 0.000000 1.000000
vt 1.000000 0.000000
vt 1.000000 0.000000
vt 0.000000 1.000000
vn 0.000000 0.000000 1.000000
vn 0.000000 0.000000 1.000000
vn 0.000000 0.000000 1.000000
vn 0.000000 0.000000 1.000000
vn 0.000000 1.000000 0.000000
vn 0.000000 1.000000 0.000000
vn 0.000000 1.000000 0.000000
vn 0.000000 1.000000 0.000000
vn 0.000000 0.000000 -1.000000
vn 0.000000 0.000000 -1.000000
vn 0.000000 0.000000 -1.000000
vn 0.000000 0.000000 -1.000000
vn 0.000000 -1.000000 0.000000
vn 0.000000 -1.000000 0.000000
vn 0.000000 -1.000000 0.000000
vn 0.000000 -1.000000 0.000000
vn 1.000000 0.000000 0.000000
vn 1.000000 0.000000 0.000000
vn 1.000000 0.000000 0.000000
vn 1.000000 0.000000 0.000000
vn -1.000000 0.000000 0.000000
vn -1.000000 0.000000 0.000000
vn -1.000000 0.000000 0.000000
vn -1.000000 0.000000 0.000000
s off
g S_Foundation
usemtl initialShadingGroup
f 1/17/1 2/2/2 4/16/3 3/24/4
f 3/3/5 4/23/6 6/6/7 5/21/8
f 5/5/9 6/22/10 8/8/11 7/19/12
f 7/7/13 8/20/14 2/10/15 1/9/16
f 2/15/17 8/11/18 6/12/19 4/4/20
f 7/13/21 1/1/22 3/18/23 5/14/24
