# This file uses centimeters as units for non-parametric coordinates.

mtllib Wall2Big.mtl
g default
v 0.000000 0.000000 0.000000
v 300.000000 0.000000 0.000000
v 0.000000 300.000000 0.000000
v 300.000000 300.000000 0.000000
v 0.000000 300.000000 -20.000000
v 300.000000 300.000000 -20.000000
v 0.000000 0.000000 -20.000000
v 300.000000 0.000000 -20.000000
v 0.000000 220.376404 0.000000
v 300.000000 220.376404 0.000000
v 300.000000 220.376404 -20.000000
v 0.000000 220.376404 -20.000000
v 300.000000 119.999992 0.000000
v 300.000000 120.000008 -20.000000
v 0.000000 120.000008 -20.000000
v 0.000000 119.999992 0.000000
v 15.000000 0.000000 0.000000
v 15.000000 0.000000 -20.000000
v 15.000004 120.000015 -20.000000
v 15.000004 220.376404 -20.000000
v 15.000000 300.000000 -20.000000
v 15.000000 300.000000 0.000000
v 15.000000 220.376404 0.000000
v 15.000000 119.999992 0.000000
v 285.000000 220.376404 -20.000000
v 285.000000 120.000008 -20.000000
v 285.000000 0.000000 -20.000000
v 285.000000 0.000000 0.000000
v 285.000000 119.999992 0.000000
v 285.000000 220.376404 0.000000
v 285.000000 300.000000 0.000000
v 285.000000 300.000000 -20.000000
v 135.000015 120.000008 -20.000000
v 135.000015 0.000000 -20.000000
v 135.000015 0.000000 0.000000
v 135.000015 120.000000 0.000000
v 135.000015 220.376404 0.000000
v 135.000015 300.000000 0.000000
v 135.000015 300.000000 -20.000000
v 135.000015 220.376404 -20.000000
v 164.999985 0.000000 0.000000
v 164.999985 0.000000 -20.000000
v 164.999985 120.000008 -20.000000
v 164.999985 220.376404 -20.000000
v 164.999985 300.000000 -20.000000
v 164.999985 300.000000 0.000000
v 164.999985 220.376404 0.000000
v 164.999985 119.999992 0.000000
vt 1.000000 0.000000
vt 1.000000 0.000000
vt 0.000000 0.000000
vt 0.000000 1.000000
vt 1.000000 1.000000
vt 1.000000 0.066667
vt 0.000000 0.933333
vt 0.000000 0.000000
vt 0.000000 1.000000
vt 1.000000 1.000000
vt 0.066667 0.000000
vt 0.066667 1.000000
vt 0.933333 0.000000
vt 0.933333 1.000000
vt 0.000000 0.000000
vt 1.000000 1.000000
vt 1.000000 0.000000
vt 0.000000 0.000000
vt 0.000000 1.000000
vt 1.000000 1.000000
vt 1.000000 0.000000
vt 1.000000 0.933333
vt 0.000000 0.066667
vt 0.000000 1.000000
vt 1.000000 0.734588
vt 0.000000 0.734588
vt 1.000000 0.734588
vt 0.000000 0.734588
vt 0.000000 0.734588
vt 0.066667 0.734588
vt 0.933333 0.734588
vt 1.000000 0.734588
vt 1.000000 0.400000
vt 0.000000 0.403850
vt 0.000000 0.400000
vt 0.066667 0.403850
vt 0.933333 0.403850
vt 1.000000 0.400000
vt 1.000000 0.403850
vt 0.000000 0.400000
vt 0.050000 0.000000
vt 0.050000 1.000000
vt 0.050000 0.933333
vt 0.950000 0.000000
vt 0.045377 0.772262
vt 0.045377 0.000000
vt 0.950000 1.000000
vt 0.050000 0.066667
vt 0.050000 0.000000
vt 0.050000 1.000000
vt 0.000000 1.000000
vt 0.000000 0.772262
vt 0.954623 0.727738
vt 0.954623 0.500000
vt 0.950000 0.933333
vt 0.050000 0.000000
vt 0.950000 0.000000
vt 0.950000 1.000000
vt 1.000000 0.500000
vt 1.000000 0.727738
vt 0.950000 0.000000
vt 0.950000 1.000000
vt 0.050000 1.000000
vt 0.950000 0.066667
vt 0.045377 0.500000
vt 0.445562 0.933333
vt 0.550000 0.000000
vt 0.450000 0.000000
vt 0.445562 1.000000
vt 0.000000 0.500000
vt 0.000000 0.272261
vt 0.445562 0.000000
vt 0.450000 1.000000
vt 0.550000 1.000000
vt 0.445562 0.066667
vt 0.045377 0.272261
vt 0.550000 0.000000
vt 0.548432 1.000000
vt 0.548432 0.933333
vt 0.450000 0.000000
vt 0.954623 0.227739
vt 0.954623 1.000000
vt 0.450000 1.000000
vt 0.548432 0.066667
vt 0.548432 0.000000
vt 0.550000 1.000000
vt 1.000000 0.000000
vt 1.000000 0.227739
vt 0.550000 0.734588
vt 0.550000 0.400000
vt 0.450000 0.400000
vt 0.450000 0.734588
vt 0.950000 0.734588
vt 0.950000 0.400000
vt 0.050000 0.734588
vt 0.050000 0.400000
vt 0.550000 0.734588
vt 0.550000 0.400000
vt 0.450000 0.400000
vt 0.450000 0.734588
vt 0.950000 0.400000
vt 0.950000 0.734588
vt 0.050000 0.734588
vt 0.050000 0.400000
vt 0.954623 0.000000
vt 1.000000 1.000000
vt 0.000000 0.000000
vt 0.045377 1.000000
vn 0.000000 0.000000 1.000000
vn 0.000000 0.000000 1.000000
vn 0.000000 0.000000 1.000000
vn 0.000000 0.000000 1.000000
vn 0.000000 1.000000 0.000000
vn 0.000000 1.000000 0.000000
vn 0.000000 1.000000 0.000000
vn 0.000000 1.000000 0.000000
vn 0.000000 0.000000 -1.000000
vn 0.000000 0.000000 -1.000000
vn 0.000000 0.000000 -1.000000
vn 0.000000 0.000000 -1.000000
vn 0.000000 -1.000000 0.000000
vn 0.000000 -1.000000 0.000000
vn 0.000000 -1.000000 0.000000
vn 0.000000 -1.000000 0.000000
vn 1.000000 0.000000 0.000000
vn 1.000000 0.000000 0.000000
vn 1.000000 0.000000 0.000000
vn 1.000000 0.000000 0.000000
vn -1.000000 0.000000 0.000000
vn -1.000000 0.000000 0.000000
vn -1.000000 0.000000 0.000000
vn -1.000000 0.000000 0.000000
vn 1.000000 0.000000 0.000000
vn 1.000000 0.000000 0.000000
vn -1.000000 0.000000 0.000000
vn -1.000000 0.000000 0.000000
vn 1.000000 0.000000 0.000000
vn 1.000000 0.000000 0.000000
vn 0.000000 0.000000 -1.000000
vn 0.000000 0.000000 -1.000000
vn 0.000000 0.000000 -1.000000
vn 0.000000 0.000000 -1.000000
vn -1.000000 0.000000 0.000000
vn -1.000000 0.000000 0.000000
vn 0.000000 0.000000 1.000000
vn 0.000000 0.000000 1.000000
vn 0.000000 0.000000 1.000000
vn 0.000000 0.000000 1.000000
vn 0.000000 -1.000000 0.000000
vn 0.000000 -1.000000 0.000000
vn 0.000000 -1.000000 0.000000
vn 0.000000 -1.000000 0.000000
vn 0.000000 0.000000 -1.000000
vn -0.000000 0.000000 -1.000000
vn -0.000000 0.000000 -1.000000
vn -0.000000 0.000000 -1.000000
vn 0.000000 0.000000 -1.000000
vn 0.000000 0.000000 -1.000000
vn 0.000000 0.000000 -1.000000
vn 0.000000 0.000000 -1.000000
vn 0.000000 1.000000 0.000000
vn 0.000000 1.000000 0.000000
vn 0.000000 1.000000 0.000000
vn 0.000000 1.000000 0.000000
vn 0.000000 0.000000 1.000000
vn 0.000000 0.000000 1.000000
vn 0.000000 0.000000 1.000000
vn 0.000000 0.000000 1.000000
vn 0.000000 0.000000 1.000000
vn 0.000000 0.000000 1.000000
vn 0.000000 0.000000 1.000000
vn 0.000000 0.000000 1.000000
vn 0.000000 -1.000000 0.000000
vn 0.000000 -1.000000 0.000000
vn 0.000000 0.000000 -1.000000
vn 0.000000 0.000000 -1.000000
vn 0.000000 0.000000 -1.000000
vn 0.000000 0.000000 -1.000000
vn 0.000000 1.000000 0.000000
vn 0.000000 1.000000 0.000000
vn 0.000000 0.000000 1.000000
vn 0.000000 0.000000 1.000000
vn 0.000000 0.000000 1.000000
vn 0.000000 0.000000 1.000000
vn 0.000000 0.000000 -1.000000
vn 0.000000 0.000000 -1.000000
vn 0.000000 0.000000 -1.000000
vn 0.000000 -1.000000 0.000000
vn 0.000000 -1.000000 0.000000
vn 0.000000 0.000000 1.000000
vn 0.000000 0.000000 1.000000
vn 0.000000 0.000000 1.000000
vn 0.000000 0.000000 1.000000
vn 0.000000 1.000000 0.000000
vn 0.000000 1.000000 0.000000
vn 0.000000 0.000000 -1.000000
vn 0.000000 -1.000000 0.000000
vn 0.000000 -1.000000 0.000000
vn 0.000000 -1.000000 0.000000
vn 0.000000 -1.000000 0.000000
vn 0.000000 -1.000000 0.000000
vn 0.000000 -1.000000 0.000000
vn 0.000000 -1.000000 0.000000
vn 0.000000 -1.000000 0.000000
vn 0.000000 1.000000 0.000001
vn 0.000000 1.000000 0.000001
vn 0.000000 1.000000 0.000001
vn 0.000000 1.000000 0.000001
vn 0.000000 1.000000 0.000001
vn 0.000000 1.000000 0.000001
vn 0.000000 1.000000 0.000001
vn 0.000000 1.000000 0.000001
vn 1.000000 0.000000 0.000000
vn 1.000000 0.000000 0.000000
vn 1.000000 0.000000 0.000000
vn 1.000000 0.000000 0.000000
vn 1.000000 0.000000 0.000000
vn 1.000000 0.000000 0.000000
vn 1.000000 0.000000 0.000000
vn 1.000000 0.000000 0.000000
vn -1.000000 0.000000 0.000000
vn -1.000000 0.000000 0.000000
vn -1.000000 0.000000 0.000000
vn -1.000000 0.000000 0.000000
vn -1.000000 0.000000 0.000000
vn -1.000000 0.000000 0.000000
vn -1.000000 0.000000 0.000000
vn -1.000000 0.000000 0.000000
s 1
g S_Wall_2BigWindows
usemtl lambert2SG
f 46/86/1 47/97/2 30/102/3 31/62/4
s 2
f 45/84/5 46/85/6 31/61/7 32/64/8
s 3
f 44/100/9 45/83/10 32/63/11 25/103/12
s 4
f 41/78/13 42/79/14 27/55/15 28/58/16
s 5
f 10/28/17 11/30/18 6/12/19 4/4/20
s 6
f 12/31/21 9/25/22 3/20/23 5/14/24
s 5
f 11/30/18 10/28/17 13/34/25 14/36/26
s 6
f 15/37/27 16/39/28 9/25/22 12/31/21
s 5
f 14/36/26 13/34/25 2/15/29 8/11/30
s 3
f 42/80/31 43/99/32 26/104/33 27/56/34
s 6
f 1/1/35 16/39/28 15/37/27 7/13/36
s 1
f 28/57/37 29/101/38 48/98/39 41/77/40
s 4
f 17/42/41 18/43/42 34/66/43 35/69/44
s 3
f 18/44/45 19/94/46 33/90/47 34/67/48
f 20/93/49 21/47/50 39/74/51 40/89/52
s 2
f 21/48/53 22/49/54 38/72/55 39/75/56
s 1
f 22/50/57 23/95/58 37/92/59 38/73/60
f 35/68/61 36/91/62 24/96/63 17/41/64
s 4
f 7/7/65 18/43/42 17/42/41 1/9/66
s 3
f 15/38/67 19/94/46 18/44/45 7/21/68
f 12/32/69 20/93/49 19/94/46 15/38/67
f 5/5/70 21/47/50 20/93/49 12/32/69
s 2
f 3/3/71 22/49/54 21/48/53 5/23/72
s 1
f 9/26/73 23/95/58 22/50/57 3/19/74
f 24/96/63 23/95/58 9/26/73 16/40/75
f 17/41/64 24/96/63 16/40/75 1/18/76
s 3
f 26/104/33 25/103/12 11/29/77 14/35/78
f 27/56/34 26/104/33 14/35/78 8/8/79
s 4
f 28/58/16 27/55/15 8/22/80 2/10/81
s 1
f 13/33/82 29/101/38 28/57/37 2/2/83
f 10/27/84 30/102/3 29/101/38 13/33/82
f 31/62/4 30/102/3 10/27/84 4/16/85
s 2
f 32/64/8 31/61/7 4/17/86 6/6/87
s 3
f 25/103/12 32/63/11 6/24/88 11/29/77
s 4
f 42/79/14 41/78/13 35/69/44 34/66/43
s 3
f 33/90/47 43/99/32 42/80/31 34/67/48
f 40/89/52 44/100/9 43/99/32 33/90/47
f 45/83/10 44/100/9 40/89/52 39/74/51
s 2
f 46/85/6 45/84/5 39/75/56 38/72/55
s 1
f 47/97/2 46/86/1 38/73/60 37/92/59
f 48/98/39 47/97/2 37/92/59 36/91/62
f 41/77/40 48/98/39 36/91/62 35/68/61
s off
f 37/71/89 23/107/90 20/46/91 40/76/92
f 44/82/93 25/53/94 30/60/95 47/106/96
f 24/52/97 36/70/98 33/65/99 19/45/100
f 26/54/101 43/81/102 48/88/103 29/59/104
f 19/45/105 20/108/106 23/51/107 24/52/108
f 43/81/109 44/105/110 47/87/111 48/88/112
f 36/70/113 37/71/114 40/76/115 33/65/116
f 25/53/117 26/54/118 29/59/119 30/60/120
