# This file uses centimeters as units for non-parametric coordinates.

mtllib Wall2Small.mtl
g default
v 0.000000 0.000000 0.000000
v 300.000000 0.000000 0.000000
v 0.000000 300.000000 0.000000
v 300.000000 300.000000 0.000000
v 0.000000 300.000000 -20.000000
v 300.000000 300.000000 -20.000000
v 0.000000 0.000000 -20.000000
v 300.000000 0.000000 -20.000000
v 0.000000 220.000000 0.000000
v 300.000000 220.000000 0.000000
v 300.000000 220.000000 -20.000000
v 0.000000 220.000000 -20.000000
v 0.000000 120.000000 0.000000
v 300.000000 120.000000 0.000000
v 300.000000 120.000000 -20.000000
v 0.000000 120.000000 -20.000000
v 30.000000 0.000000 0.000000
v 30.000000 0.000000 -20.000000
v 29.999998 120.000000 -20.000000
v 29.999998 220.000000 -20.000000
v 30.000000 300.000000 -20.000000
v 30.000000 300.000000 0.000000
v 30.000000 220.000000 0.000000
v 30.000000 120.000000 0.000000
v 270.000000 220.000000 -20.000000
v 270.000000 120.000000 -20.000000
v 270.000000 0.000000 -20.000000
v 270.000000 0.000000 0.000000
v 270.000000 120.000000 0.000000
v 270.000000 220.000000 0.000000
v 270.000000 300.000000 0.000000
v 270.000000 300.000000 -20.000000
v 90.000000 120.000000 -20.000000
v 89.999992 0.000000 -20.000000
v 89.999992 0.000000 0.000000
v 89.999992 120.000000 0.000000
v 89.999992 220.000000 0.000000
v 89.999992 300.000000 0.000000
v 89.999992 300.000000 -20.000000
v 90.000000 220.000000 -20.000000
v 210.000000 0.000000 0.000000
v 210.000000 0.000000 -20.000000
v 210.000000 120.000000 -20.000000
v 210.000000 220.000000 -20.000000
v 210.000000 300.000000 -20.000000
v 210.000000 300.000000 0.000000
v 210.000000 220.000000 0.000000
v 210.000000 120.000000 0.000000
vt 1.000000 0.000000
vt 0.999943 0.000075
vt 0.000000 0.000000
vt 0.000000 1.000000
vt 1.000000 0.999868
vt 1.000000 0.066667
vt 0.000000 0.933333
vt 0.000000 0.000132
vt 0.000000 1.000000
vt 1.000000 1.000000
vt 0.066667 0.000000
vt 0.066667 1.000000
vt 0.933333 0.000000
vt 0.933333 1.000000
vt 0.000000 0.000000
vt 0.999925 0.999943
vt 1.000000 0.000000
vt 0.000075 0.000057
vt 0.000057 0.999925
vt 1.000000 1.000000
vt 0.999868 0.000000
vt 1.000000 0.933333
vt 0.000000 0.066667
vt 0.000132 1.000000
vt 1.000000 0.733757
vt 0.000062 0.733294
vt 0.999930 0.733312
vt 0.000000 0.733757
vt 0.000097 0.733368
vt 0.066667 0.733757
vt 0.933333 0.733757
vt 0.999965 0.733237
vt 1.000000 0.397927
vt 0.000068 0.400004
vt 0.999936 0.400022
vt 0.000000 0.397927
vt 0.000053 0.400079
vt 0.066667 0.397927
vt 0.933333 0.397927
vt 0.999921 0.399947
vt 0.100062 0.000059
vt 0.100000 1.000000
vt 0.100000 0.933333
vt 0.899881 0.000013
vt 0.062500 0.687500
vt 0.062500 0.000000
vt 0.900013 0.999882
vt 0.100000 0.066667
vt 0.100000 0.000000
vt 0.100044 0.999927
vt 0.000000 1.000000
vt 0.000000 0.687500
vt 0.937500 0.812500
vt 0.937500 0.500000
vt 0.900000 0.933333
vt 0.099987 0.000118
vt 0.899956 0.000073
vt 0.900000 1.000000
vt 1.000000 0.500000
vt 1.000000 0.812500
vt 0.900000 0.000000
vt 0.899938 0.999941
vt 0.100118 0.999987
vt 0.900000 0.066667
vt 0.062500 0.500000
vt 0.304050 0.933333
vt 0.699908 0.000040
vt 0.300035 0.000062
vt 0.304050 1.000000
vt 0.000000 0.500000
vt 0.000000 0.187500
vt 0.304050 0.000000
vt 0.300017 0.999931
vt 0.700039 0.999908
vt 0.304050 0.066667
vt 0.062500 0.187500
vt 0.699983 0.000069
vt 0.705930 1.000000
vt 0.705930 0.933333
vt 0.299960 0.000092
vt 0.937500 0.312500
vt 0.937500 1.000000
vt 0.300092 0.999960
vt 0.705930 0.066667
vt 0.705930 0.000000
vt 0.699965 0.999938
vt 1.000000 0.000000
vt 1.000000 0.312500
vt 0.700004 0.733276
vt 0.699960 0.399987
vt 0.300028 0.400010
vt 0.300022 0.733299
vt 0.899978 0.733250
vt 0.899934 0.399960
vt 0.100048 0.733295
vt 0.100054 0.400006
vt 0.699969 0.733306
vt 0.699975 0.400017
vt 0.300013 0.400039
vt 0.300057 0.733329
vt 0.899949 0.400020
vt 0.899943 0.733310
vt 0.100083 0.733355
vt 0.100039 0.400066
vt 0.000000 0.000000
vt 0.062500 1.000000
vt 0.937500 0.000000
vt 1.000000 1.000000
vn 0.000000 0.000000 1.000000
vn 0.000000 0.000000 1.000000
vn 0.000000 0.000000 1.000000
vn 0.000000 0.000000 1.000000
vn 0.000000 1.000000 0.000000
vn 0.000000 1.000000 0.000000
vn 0.000000 1.000000 0.000000
vn 0.000000 1.000000 0.000000
vn 0.000000 0.000000 -1.000000
vn 0.000000 0.000000 -1.000000
vn 0.000000 0.000000 -1.000000
vn 0.000000 0.000000 -1.000000
vn 0.000000 -1.000000 0.000000
vn 0.000000 -1.000000 0.000000
vn 0.000000 -1.000000 0.000000
vn 0.000000 -1.000000 0.000000
vn 1.000000 0.000000 0.000000
vn 1.000000 0.000000 0.000000
vn 1.000000 0.000000 0.000000
vn 1.000000 0.000000 0.000000
vn -1.000000 0.000000 0.000000
vn -1.000000 0.000000 0.000000
vn -1.000000 0.000000 0.000000
vn -1.000000 0.000000 0.000000
vn 1.000000 0.000000 0.000000
vn 1.000000 0.000000 0.000000
vn -1.000000 0.000000 0.000000
vn -1.000000 0.000000 0.000000
vn 0.000000 0.000000 1.000000
vn 0.000000 0.000000 1.000000
vn 0.000000 0.000000 1.000000
vn 0.000000 0.000000 1.000000
vn 1.000000 0.000000 0.000000
vn 1.000000 0.000000 0.000000
vn 0.000000 0.000000 -1.000000
vn 0.000000 0.000000 -1.000000
vn 0.000000 0.000000 -1.000000
vn 0.000000 0.000000 -1.000000
vn -1.000000 0.000000 0.000000
vn -1.000000 0.000000 0.000000
vn 0.000000 -1.000000 0.000000
vn 0.000000 -1.000000 0.000000
vn 0.000000 -1.000000 0.000000
vn 0.000000 -1.000000 0.000000
vn 0.000000 0.000000 -1.000000
vn 0.000000 0.000000 -1.000000
vn 0.000000 0.000000 -1.000000
vn 0.000000 0.000000 -1.000000
vn 0.000000 0.000000 -1.000000
vn 0.000000 0.000000 -1.000000
vn 0.000000 0.000000 -1.000000
vn 0.000000 0.000000 -1.000000
vn 0.000000 1.000000 0.000000
vn 0.000000 1.000000 0.000000
vn 0.000000 1.000000 0.000000
vn 0.000000 1.000000 0.000000
vn 0.000000 0.000000 1.000000
vn 0.000000 0.000000 1.000000
vn 0.000000 0.000000 1.000000
vn 0.000000 0.000000 1.000000
vn 0.000000 0.000000 1.000000
vn 0.000000 0.000000 1.000000
vn 0.000000 0.000000 1.000000
vn 0.000000 0.000000 1.000000
vn 0.000000 -1.000000 0.000000
vn 0.000000 -1.000000 0.000000
vn 0.000000 0.000000 -1.000000
vn 0.000000 0.000000 -1.000000
vn 0.000000 0.000000 -1.000000
vn 0.000000 0.000000 -1.000000
vn 0.000000 1.000000 0.000000
vn 0.000000 1.000000 0.000000
vn 0.000000 0.000000 1.000000
vn 0.000000 0.000000 1.000000
vn 0.000000 0.000000 1.000000
vn 0.000000 0.000000 1.000000
vn 0.000000 0.000000 -1.000000
vn 0.000000 0.000000 -1.000000
vn 0.000000 0.000000 -1.000000
vn 0.000000 -1.000000 0.000000
vn 0.000000 -1.000000 0.000000
vn 0.000000 0.000000 1.000000
vn 0.000000 0.000000 1.000000
vn 0.000000 0.000000 1.000000
vn 0.000000 0.000000 1.000000
vn 0.000000 1.000000 0.000000
vn 0.000000 1.000000 0.000000
vn 0.000000 0.000000 -1.000000
vn 0.000000 -1.000000 -0.000000
vn 0.000000 -1.000000 -0.000000
vn 0.000000 -1.000000 -0.000000
vn 0.000000 -1.000000 -0.000000
vn 0.000000 -1.000000 0.000000
vn 0.000000 -1.000000 0.000000
vn 0.000000 -1.000000 0.000000
vn 0.000000 -1.000000 0.000000
vn 0.000000 1.000000 -0.000000
vn 0.000000 1.000000 -0.000000
vn 0.000000 1.000000 -0.000000
vn 0.000000 1.000000 -0.000000
vn 0.000000 1.000000 0.000000
vn 0.000000 1.000000 0.000000
vn 0.000000 1.000000 0.000000
vn 0.000000 1.000000 0.000000
vn 1.000000 0.000000 -0.000000
vn 1.000000 0.000000 -0.000000
vn 1.000000 0.000000 -0.000000
vn 1.000000 0.000000 -0.000000
vn 1.000000 0.000000 0.000000
vn 1.000000 0.000000 0.000000
vn 1.000000 0.000000 0.000000
vn 1.000000 0.000000 0.000000
vn -1.000000 0.000000 -0.000000
vn -1.000000 0.000000 -0.000000
vn -1.000000 0.000000 -0.000000
vn -1.000000 0.000000 -0.000000
vn -1.000000 0.000000 0.000000
vn -1.000000 0.000000 0.000000
vn -1.000000 0.000000 0.000000
vn -1.000000 0.000000 0.000000
s 1
g S_Wall_2SmallWindows
usemtl initialShadingGroup
f 46/86/1 47/97/2 30/102/3 31/62/4
s 2
f 45/84/5 46/85/6 31/61/7 32/64/8
s 3
f 44/100/9 45/83/10 32/63/11 25/103/12
s 4
f 41/78/13 42/79/14 27/55/15 28/58/16
s 5
f 10/28/17 11/30/18 6/12/19 4/4/20
s 6
f 12/31/21 9/25/22 3/20/23 5/14/24
s 5
f 14/36/25 15/38/26 11/30/18 10/28/17
s 6
f 16/39/27 13/33/28 9/25/22 12/31/21
s 1
f 48/98/29 41/77/30 28/57/31 29/101/32
s 5
f 2/15/33 8/11/34 15/38/26 14/36/25
s 3
f 42/80/35 43/99/36 26/104/37 27/56/38
s 6
f 7/13/39 1/1/40 13/33/28 16/39/27
s 4
f 17/42/41 18/43/42 34/66/43 35/69/44
s 3
f 18/44/45 19/94/46 33/90/47 34/67/48
f 20/93/49 21/47/50 39/74/51 40/89/52
s 2
f 21/48/53 22/49/54 38/72/55 39/75/56
s 1
f 22/50/57 23/95/58 37/92/59 38/73/60
f 24/96/61 17/41/62 35/68/63 36/91/64
s 4
f 7/7/65 18/43/42 17/42/41 1/9/66
s 3
f 16/40/67 19/94/46 18/44/45 7/21/68
f 12/32/69 20/93/49 19/94/46 16/40/67
f 5/5/70 21/47/50 20/93/49 12/32/69
s 2
f 3/3/71 22/49/54 21/48/53 5/23/72
s 1
f 9/26/73 23/95/58 22/50/57 3/19/74
f 13/34/75 24/96/61 23/95/58 9/26/73
f 1/18/76 17/41/62 24/96/61 13/34/75
s 3
f 26/104/37 25/103/12 11/29/77 15/37/78
f 27/56/38 26/104/37 15/37/78 8/8/79
s 4
f 28/58/16 27/55/15 8/22/80 2/10/81
s 1
f 29/101/32 28/57/31 2/2/82 14/35/83
f 30/102/3 29/101/32 14/35/83 10/27/84
f 31/62/4 30/102/3 10/27/84 4/16/85
s 2
f 32/64/8 31/61/7 4/17/86 6/6/87
s 3
f 25/103/12 32/63/11 6/24/88 11/29/77
s 4
f 42/79/14 41/78/13 35/69/44 34/66/43
s 3
f 33/90/47 43/99/36 42/80/35 34/67/48
f 40/89/52 44/100/9 43/99/36 33/90/47
f 45/83/10 44/100/9 40/89/52 39/74/51
s 2
f 46/85/6 45/84/5 39/75/56 38/72/55
s 1
f 47/97/2 46/86/1 38/73/60 37/92/59
f 48/98/29 47/97/2 37/92/59 36/91/64
f 41/77/30 48/98/29 36/91/64 35/68/63
s off
f 37/71/89 23/105/90 20/46/91 40/76/92
f 44/82/93 25/53/94 30/60/95 47/108/96
f 24/52/97 36/70/98 33/65/99 19/45/100
f 26/54/101 43/81/102 48/88/103 29/59/104
f 19/45/105 20/106/106 23/51/107 24/52/108
f 43/81/109 44/107/110 47/87/111 48/88/112
f 36/70/113 37/71/114 40/76/115 33/65/116
f 25/53/117 26/54/118 29/59/119 30/60/120
