# This file uses centimeters as units for non-parametric coordinates.

mtllib A_Roof.mtl
g default
v 1.031647 0.726273 424.457367
v 1.031616 0.726288 -0.542603
v 215.168457 225.411636 424.457367
v 215.168488 225.411606 -0.542603
v 206.435486 233.824539 424.457367
v 206.435486 233.824539 -0.542603
v -31.185974 -13.385651 424.457367
v -31.185852 -13.385757 -0.542603
v -19.790222 -1.530258 -0.542603
v -19.790314 -1.530167 424.457367
v 11.301025 11.501511 424.457367
v 11.301025 11.501541 -0.542603
v -7.225616 11.541351 -0.542603
v -7.225739 11.541458 424.457367
v 22.623840 23.382095 424.457367
v 22.623840 23.382126 -0.542603
v 6.004822 25.305710 -0.542603
v 6.004700 25.305801 424.457367
v 34.546692 35.892258 424.457367
v 34.546692 35.892319 -0.542603
v 18.234863 38.029282 -0.542603
v 18.234772 38.029343 424.457367
v 45.568024 47.456528 424.457367
v 45.567993 47.456528 -0.542603
v 31.620483 51.955032 -0.542603
v 31.620361 51.955124 424.457367
v 57.630707 60.113419 424.457367
v 57.630676 60.113449 -0.542603
v 45.375336 66.264938 -0.542603
v 45.375244 66.265030 424.457367
v 70.026123 73.119492 424.457367
v 70.026123 73.119492 -0.542603
v 58.435760 79.852432 -0.542603
v 58.435699 79.852524 424.457367
v 81.795807 85.468918 424.457367
v 81.795776 85.468918 -0.542603
v 71.243225 93.176743 -0.542603
v 71.243164 93.176834 424.457367
v 93.337463 97.579147 424.457367
v 93.337463 97.579147 -0.542603
v 85.416809 107.922287 -0.542603
v 85.416748 107.922348 424.457367
v 106.110291 110.981155 424.457367
v 106.110291 110.981155 -0.542603
v 100.491119 123.604904 -0.542603
v 100.491089 123.604965 424.457367
v 119.694763 125.234848 424.457367
v 119.694763 125.234818 -0.542603
v 114.203949 137.871109 -0.542603
v 114.203918 137.871201 424.457367
v 132.052368 138.201157 424.457367
v 132.052368 138.201157 -0.542603
v 127.713531 151.925827 -0.542603
v 127.713470 151.925888 424.457367
v 144.226746 150.975235 424.457367
v 144.226746 150.975235 -0.542603
v 142.079834 166.871902 -0.542603
v 142.079803 166.871933 424.457367
v 157.173218 164.559464 424.457367
v 157.173218 164.559464 -0.542603
v 156.775421 182.160507 -0.542603
v 156.775391 182.160507 424.457367
v 170.416382 178.455002 424.457367
v 170.416382 178.455002 -0.542603
v 171.189148 197.155869 -0.542603
v 171.189117 197.155869 424.457367
v 183.405579 192.084122 424.457367
v 183.405579 192.084122 -0.542603
v 187.189056 213.801437 -0.542603
v 187.189056 213.801437 424.457367
v 197.824188 207.212967 424.457367
v 197.824188 207.212936 -0.542603
v 198.962372 235.033005 424.457367
v 198.962372 235.033005 -0.542603
v 179.715942 215.009964 -0.542603
v 179.715912 215.009933 424.457367
v -27.263306 -0.321716 -0.542603
v -27.263458 -0.321640 424.457367
v -38.658966 -12.177231 -0.542603
v -38.659058 -12.177109 424.457367
v -1.468292 26.514206 -0.542603
v -1.468384 26.514328 424.457367
v -14.698730 12.749832 -0.542603
v -14.698853 12.749954 424.457367
v 24.147339 53.163528 -0.542603
v 24.147278 53.163620 424.457367
v 10.761749 39.237778 -0.542603
v 10.761658 39.237839 424.457367
v 50.962646 81.060898 -0.542603
v 50.962585 81.061020 424.457367
v 37.902222 67.473434 -0.542603
v 37.902130 67.473557 424.457367
v 77.943695 109.130783 -0.542603
v 77.943665 109.130844 424.457367
v 63.770111 94.385239 -0.542603
v 63.770050 94.385300 424.457367
v 106.730835 139.079636 -0.542603
v 106.730835 139.079666 424.457367
v 93.018005 124.813400 -0.542603
v 93.017975 124.813461 424.457367
v 134.606720 168.080429 -0.542603
v 134.606689 168.080460 424.457367
v 120.240417 153.134323 -0.542603
v 120.240356 153.134415 424.457367
v 163.716034 198.364365 -0.542603
v 163.716034 198.364365 424.457367
v 149.302307 183.369003 -0.542603
v 149.302277 183.369003 424.457367
vt 0.565572 0.105918
vt 1.000000 0.161956
vt 0.563310 0.999901
vt 1.000000 0.892271
vt 1.000000 0.289760
vt 0.469348 0.999613
vt 0.526677 0.012376
vt 0.000000 0.162328
vt 0.485791 0.059494
vt 1.000000 0.236645
vt 0.000000 0.196980
vt 0.445688 0.147925
vt 0.000000 0.279307
vt 0.526849 0.111961
vt 0.000000 0.235597
vt 0.445062 0.195192
vt 0.483916 0.166690
vt 1.000000 0.359853
vt 0.000000 0.276259
vt 0.444404 0.244963
vt 0.000000 0.401379
vt 0.527032 0.217783
vt 0.000000 0.313848
vt 0.443795 0.290972
vt 0.482054 0.273140
vt 1.000000 0.482452
vt 0.000000 0.354988
vt 0.443129 0.341327
vt 0.000000 0.529155
vt 0.527227 0.330586
vt 0.000000 0.397262
vt 0.442444 0.393071
vt 0.480105 0.384576
vt 1.000000 0.609124
vt 0.000000 0.437403
vt 0.441794 0.442203
vt 0.000000 0.652611
vt 0.527412 0.438101
vt 0.000000 0.476766
vt 0.441157 0.490384
vt 0.478144 0.496700
vt 1.000000 0.736359
vt 0.000000 0.520328
vt 0.440451 0.543703
vt 0.000000 0.787542
vt 0.527623 0.559664
vt 0.000000 0.566658
vt 0.439701 0.600412
vt 0.476052 0.616330
vt 1.000000 0.869727
vt 0.000000 0.608803
vt 0.439019 0.651998
vt 0.000000 0.915597
vt 0.527818 0.672808
vt 0.000000 0.650324
vt 0.438346 0.702819
vt 0.474026 0.732173
vt 1.000000 1.000000
vt 0.000000 0.694478
vt 0.437631 0.756864
vt 0.000000 0.049897
vt 0.528027 0.793598
vt 0.000000 0.739644
vt 0.436900 0.812147
vt 0.471910 0.853141
vt 1.000000 0.134461
vt 0.000000 0.783944
vt 0.436182 0.866370
vt 0.000000 0.188787
vt 0.528245 0.920006
vt 0.000000 0.833118
vt 0.435386 0.926560
vt 1.000000 0.271948
vt 0.487493 0.987522
vt 0.000000 0.206599
vt 0.510294 0.907630
vt 1.000000 0.218833
vt 0.503935 0.047404
vt 0.000000 0.180141
vt 0.508725 -0.000000
vt 1.000000 0.342041
vt 0.502060 0.154599
vt 0.000000 0.297119
vt 0.508897 0.099586
vt 1.000000 0.464640
vt 0.500199 0.261049
vt 0.000000 0.419191
vt 0.509080 0.205407
vt 1.000000 0.591312
vt 0.498250 0.372484
vt 0.000000 0.546967
vt 0.509275 0.318211
vt 1.000000 0.718547
vt 0.496289 0.484609
vt 0.000000 0.670423
vt 0.509461 0.425725
vt 1.000000 0.851915
vt 0.494196 0.604238
vt 0.000000 0.805354
vt 0.509671 0.547288
vt 1.000000 0.982188
vt 0.492170 0.720081
vt 0.000000 0.933409
vt 0.509866 0.660433
vt 1.000000 0.116649
vt 0.490055 0.841050
vt 0.000000 0.067709
vt 0.510075 0.781222
vt 0.470747 0.919632
vt 0.472958 0.793243
vt 0.475070 0.672471
vt 0.477048 0.559344
vt 0.479174 0.437799
vt 0.481054 0.330301
vt 0.483027 0.217514
vt 0.484878 0.111709
vt 1.000000 0.833118
vt 1.000000 0.783944
vt 1.000000 0.739644
vt 1.000000 0.694478
vt 1.000000 0.650324
vt 1.000000 0.608803
vt 1.000000 0.566658
vt 1.000000 0.520328
vt 1.000000 0.476766
vt 1.000000 0.437403
vt 1.000000 0.397262
vt 1.000000 0.354988
vt 1.000000 0.313848
vt 1.000000 0.276259
vt 1.000000 0.235597
vt 1.000000 0.196980
vt 0.563493 0.927492
vt 0.000000 0.892271
vt 0.563645 0.867297
vt 0.563783 0.813069
vt 0.563922 0.757781
vt 0.564059 0.703732
vt 0.564188 0.652906
vt 0.564318 0.601315
vt 0.564462 0.544603
vt 0.564597 0.491278
vt 0.564719 0.443094
vt 0.564843 0.393957
vt 0.564974 0.342209
vt 0.565102 0.291849
vt 0.565218 0.245837
vt 0.565344 0.196061
vt 0.565464 0.148791
vt 0.000000 0.161956
vt 1.000000 0.079197
vt 0.486619 0.012138
vt 0.446255 0.105056
vt 0.000000 0.079197
vt 0.528130 0.853506
vt 0.527921 0.732519
vt 0.527721 0.616659
vt 0.527514 0.497011
vt 0.527321 0.384870
vt 0.527128 0.273417
vt 0.526944 0.166951
vt 0.526759 0.059739
vt 0.434428 0.998964
vt 1.000000 0.920803
vt 0.000000 0.920803
vt 0.528384 1.000000
vt 0.000000 0.116649
vt 0.491102 0.781151
vt 0.000000 0.134461
vt 0.000000 0.982188
vt 0.493214 0.660380
vt 0.000000 0.000000
vt 0.000000 0.851915
vt 0.495193 0.547252
vt 0.000000 0.869727
vt 0.000000 0.718547
vt 0.497319 0.425708
vt 0.000000 0.736359
vt 0.000000 0.591312
vt 0.499199 0.318210
vt 0.000000 0.609124
vt 0.000000 0.464640
vt 0.501171 0.205423
vt 0.000000 0.482452
vt 0.000000 0.342041
vt 0.503022 0.099617
vt 0.000000 0.359853
vt 0.000000 0.218833
vt 0.504764 0.000047
vt 0.000000 0.236645
vt 0.000000 0.271948
vt 0.488891 0.907540
vt 0.000000 0.289760
vt 0.510179 0.841130
vt 1.000000 0.067709
vt 1.000000 0.049897
vt 0.509970 0.720143
vt 1.000000 0.933409
vt 1.000000 0.915597
vt 0.509770 0.604283
vt 1.000000 0.805354
vt 1.000000 0.787542
vt 0.509563 0.484635
vt 1.000000 0.670423
vt 1.000000 0.652611
vt 0.509369 0.372494
vt 1.000000 0.546967
vt 1.000000 0.529155
vt 0.509176 0.261041
vt 1.000000 0.419191
vt 1.000000 0.401379
vt 0.508992 0.154575
vt 1.000000 0.297119
vt 1.000000 0.279307
vt 0.508807 0.047363
vt 1.000000 0.180141
vt 1.000000 0.162329
vt 0.510432 0.987624
vt 1.000000 0.206599
vt 1.000000 0.188787
vt 0.000000 1.000000
vt 1.000000 0.000000
vn 0.723895 -0.689910 0.000000
vn 0.723895 -0.689910 0.000000
vn 0.723895 -0.689910 0.000000
vn 0.723895 -0.689910 0.000000
vn 0.693786 0.720181 0.000000
vn 0.693786 0.720181 0.000000
vn 0.693786 0.720181 0.000000
vn 0.693786 0.720181 0.000000
vn -0.720950 0.692987 0.000000
vn -0.720950 0.692987 0.000000
vn -0.720950 0.692987 0.000000
vn -0.720950 0.692987 0.000000
vn 0.401220 -0.915982 0.000000
vn 0.401220 -0.915982 0.000000
vn 0.401220 -0.915982 0.000000
vn 0.401220 -0.915982 0.000000
vn 0.000000 0.000000 -1.000000
vn 0.000000 0.000000 -1.000000
vn 0.000000 0.000000 -1.000000
vn 0.000000 0.000000 -1.000000
vn 0.000000 0.000000 1.000000
vn 0.000000 0.000000 1.000000
vn 0.000000 0.000000 1.000000
vn 0.000000 0.000000 1.000000
vn -0.720951 0.692986 -0.000000
vn -0.720951 0.692986 -0.000000
vn -0.720951 0.692986 -0.000000
vn -0.720951 0.692986 -0.000000
vn 0.000003 0.000000 1.000000
vn 0.000000 0.000000 1.000000
vn 0.000000 0.000000 1.000000
vn 0.000000 0.000000 1.000000
vn 0.723895 -0.689911 -0.000000
vn 0.723894 -0.689911 -0.000000
vn 0.723895 -0.689910 -0.000000
vn 0.723895 -0.689910 -0.000000
vn 0.000000 0.000000 -1.000000
vn 0.000000 0.000000 -1.000000
vn 0.000000 0.000000 -1.000000
vn 0.000000 0.000000 -1.000000
vn -0.720951 0.692986 -0.000000
vn -0.720951 0.692986 -0.000000
vn -0.720951 0.692986 -0.000000
vn -0.720951 0.692986 -0.000000
vn -0.000002 0.000000 1.000000
vn -0.000000 0.000000 1.000000
vn 0.723895 -0.689910 -0.000000
vn 0.723895 -0.689910 -0.000000
vn 0.000000 0.000000 -1.000000
vn 0.000000 0.000000 -1.000000
vn -0.720951 0.692986 -0.000000
vn -0.720951 0.692986 -0.000000
vn -0.720951 0.692986 -0.000000
vn -0.720951 0.692986 -0.000000
vn -0.000000 0.000000 1.000000
vn -0.000002 0.000000 1.000000
vn 0.723895 -0.689910 -0.000000
vn 0.723895 -0.689910 -0.000000
vn 0.000000 0.000000 -1.000000
vn 0.000000 0.000000 -1.000000
vn -0.720950 0.692987 -0.000000
vn -0.720950 0.692987 -0.000000
vn -0.720950 0.692987 -0.000000
vn -0.720950 0.692987 -0.000000
vn 0.000000 0.000000 1.000000
vn 0.000000 0.000000 1.000000
vn 0.723895 -0.689910 -0.000000
vn 0.723895 -0.689910 -0.000000
vn 0.000000 0.000000 -1.000000
vn 0.000000 0.000000 -1.000000
vn -0.720951 0.692986 -0.000000
vn -0.720951 0.692986 -0.000000
vn -0.720951 0.692986 -0.000000
vn -0.720951 0.692986 -0.000000
vn -0.000002 0.000000 1.000000
vn -0.000000 0.000000 1.000000
vn 0.723896 -0.689910 -0.000000
vn 0.723896 -0.689910 -0.000000
vn -0.000000 0.000000 -1.000000
vn -0.000000 0.000000 -1.000000
vn -0.720950 0.692987 -0.000000
vn -0.720950 0.692987 -0.000000
vn -0.720950 0.692987 -0.000000
vn -0.720950 0.692987 -0.000000
vn -0.000000 0.000000 1.000000
vn -0.000002 0.000000 1.000000
vn 0.723895 -0.689910 -0.000000
vn 0.723895 -0.689910 -0.000000
vn -0.000000 0.000000 -1.000000
vn 0.000000 0.000000 -1.000000
vn -0.720951 0.692987 -0.000000
vn -0.720951 0.692987 -0.000000
vn -0.720951 0.692987 -0.000000
vn -0.720951 0.692987 -0.000000
vn -0.000002 0.000000 1.000000
vn -0.000001 0.000000 1.000000
vn 0.723895 -0.689910 -0.000000
vn 0.723895 -0.689910 -0.000000
vn 0.000000 0.000000 -1.000000
vn 0.000000 0.000000 -1.000000
vn -0.720951 0.692986 -0.000000
vn -0.720951 0.692986 -0.000000
vn -0.720951 0.692986 -0.000000
vn -0.720951 0.692986 -0.000000
vn -0.000000 0.000000 1.000000
vn -0.000001 0.000000 1.000000
vn 0.723895 -0.689910 -0.000000
vn 0.723895 -0.689910 -0.000000
vn 0.000000 0.000000 -1.000000
vn 0.000000 0.000000 -1.000000
vn -0.720950 0.692987 -0.000000
vn -0.720950 0.692987 -0.000000
vn -0.720950 0.692987 -0.000000
vn -0.720950 0.692987 -0.000000
vn 0.000000 0.000000 1.000000
vn 0.000000 0.000000 1.000000
vn 0.723895 -0.689910 0.000000
vn 0.723895 -0.689910 0.000000
vn 0.000000 0.000000 -1.000000
vn 0.000000 0.000000 -1.000000
vn -0.720951 0.692986 -0.000000
vn -0.720951 0.692986 -0.000000
vn -0.720951 0.692986 -0.000000
vn -0.720951 0.692986 -0.000000
vn 0.000000 0.000000 1.000000
vn 0.000000 0.000000 1.000000
vn 0.723895 -0.689910 0.000000
vn 0.723895 -0.689910 0.000000
vn 0.000000 0.000000 -1.000000
vn 0.000000 0.000000 -1.000000
vn -0.720951 0.692986 -0.000000
vn -0.720951 0.692986 -0.000000
vn -0.720951 0.692986 -0.000000
vn -0.720951 0.692986 -0.000000
vn 0.000000 0.000000 1.000000
vn 0.000000 0.000000 1.000000
vn 0.723895 -0.689911 0.000000
vn 0.723895 -0.689911 0.000000
vn 0.000000 0.000000 -1.000000
vn 0.000000 0.000000 -1.000000
vn -0.720950 0.692987 -0.000000
vn -0.720950 0.692987 -0.000000
vn -0.720950 0.692987 -0.000000
vn -0.720950 0.692987 -0.000000
vn 0.000000 0.000000 1.000000
vn 0.000001 0.000000 1.000000
vn 0.723895 -0.689910 0.000000
vn 0.723895 -0.689910 0.000000
vn -0.000000 0.000000 -1.000000
vn 0.000000 0.000000 -1.000000
vn -0.720951 0.692986 -0.000000
vn -0.720951 0.692986 -0.000000
vn -0.720951 0.692986 -0.000000
vn -0.720951 0.692986 -0.000000
vn 0.000001 0.000000 1.000000
vn 0.000001 0.000000 1.000000
vn 0.723895 -0.689910 0.000000
vn 0.723895 -0.689910 0.000000
vn 0.000000 0.000000 -1.000000
vn 0.000000 0.000000 -1.000000
vn -0.720951 0.692987 -0.000000
vn -0.720951 0.692987 -0.000000
vn -0.720951 0.692987 -0.000000
vn -0.720951 0.692987 -0.000000
vn 0.000001 0.000000 1.000000
vn 0.000001 0.000000 1.000000
vn 0.723896 -0.689909 0.000000
vn 0.723896 -0.689909 0.000000
vn 0.000000 0.000000 -1.000000
vn 0.000000 0.000000 -1.000000
vn -0.720950 0.692987 0.000000
vn -0.720950 0.692987 0.000000
vn -0.720950 0.692987 0.000000
vn -0.720950 0.692987 0.000000
vn 0.000000 0.000000 1.000000
vn 0.000000 0.000000 1.000000
vn 0.723896 -0.689910 0.000000
vn 0.723896 -0.689910 0.000000
vn 0.000000 0.000000 -1.000000
vn 0.000000 0.000000 -1.000000
vn -0.720950 0.692987 -0.000000
vn -0.720950 0.692987 -0.000000
vn -0.720950 0.692987 -0.000000
vn -0.720950 0.692987 -0.000000
vn 0.159634 0.987176 0.000000
vn 0.159634 0.987176 0.000000
vn 0.159634 0.987176 0.000000
vn 0.159634 0.987176 0.000000
vn -0.000000 0.000000 -1.000000
vn -0.000000 0.000000 -1.000000
vn -0.159640 -0.987175 -0.000000
vn -0.159640 -0.987175 -0.000000
vn -0.159640 -0.987175 -0.000000
vn -0.159640 -0.987175 -0.000000
vn 0.000000 0.000000 1.000000
vn 0.000000 0.000000 1.000000
vn 0.159644 0.987175 -0.000000
vn 0.159644 0.987175 -0.000000
vn 0.159644 0.987175 -0.000000
vn 0.159644 0.987175 -0.000000
vn 0.000000 0.000000 -1.000000
vn 0.000000 0.000000 -1.000000
vn -0.159644 -0.987175 0.000000
vn -0.159644 -0.987175 0.000000
vn -0.159644 -0.987175 0.000000
vn -0.159644 -0.987175 0.000000
vn 0.000004 0.000000 1.000000
vn 0.000004 0.000000 1.000000
vn 0.159641 0.987175 -0.000000
vn 0.159641 0.987175 -0.000000
vn 0.159641 0.987175 -0.000000
vn 0.159641 0.987175 -0.000000
vn 0.000000 0.000000 -1.000000
vn 0.000000 0.000000 -1.000000
vn -0.159638 -0.987176 0.000000
vn -0.159638 -0.987176 0.000000
vn -0.159638 -0.987176 0.000000
vn -0.159638 -0.987176 0.000000
vn 0.000000 0.000000 1.000000
vn 0.000000 0.000000 1.000000
vn 0.159639 0.987176 -0.000000
vn 0.159639 0.987176 -0.000000
vn 0.159639 0.987176 -0.000000
vn 0.159639 0.987176 -0.000000
vn 0.000000 0.000000 -1.000000
vn 0.000000 0.000000 -1.000000
vn -0.159639 -0.987176 0.000000
vn -0.159639 -0.987176 0.000000
vn -0.159639 -0.987176 0.000000
vn -0.159639 -0.987176 0.000000
vn 0.000000 0.000000 1.000000
vn 0.000000 0.000000 1.000000
vn 0.159637 0.987176 -0.000000
vn 0.159637 0.987176 -0.000000
vn 0.159637 0.987176 -0.000000
vn 0.159637 0.987176 -0.000000
vn -0.000000 0.000000 -1.000000
vn -0.000000 0.000000 -1.000000
vn -0.159641 -0.987175 0.000000
vn -0.159641 -0.987175 0.000000
vn -0.159641 -0.987175 0.000000
vn -0.159641 -0.987175 0.000000
vn -0.000002 0.000000 1.000000
vn -0.000002 0.000000 1.000000
vn 0.159639 0.987176 -0.000000
vn 0.159639 0.987175 -0.000000
vn 0.159639 0.987176 -0.000000
vn 0.159639 0.987175 -0.000000
vn 0.000000 0.000000 -1.000000
vn 0.000000 0.000000 -1.000000
vn -0.159637 -0.987176 0.000000
vn -0.159637 -0.987176 0.000000
vn -0.159637 -0.987176 0.000000
vn -0.159637 -0.987176 0.000000
vn 0.000002 0.000000 1.000000
vn 0.000002 0.000000 1.000000
vn 0.159639 0.987176 -0.000000
vn 0.159639 0.987175 -0.000000
vn 0.159639 0.987176 -0.000000
vn 0.159639 0.987176 -0.000000
vn 0.000000 0.000000 -1.000000
vn 0.000000 0.000000 -1.000000
vn -0.159639 -0.987176 0.000000
vn -0.159639 -0.987176 0.000000
vn -0.159639 -0.987176 0.000000
vn -0.159639 -0.987176 0.000000
vn 0.000000 0.000000 1.000000
vn 0.000000 0.000000 1.000000
vn 0.159643 0.987175 -0.000000
vn 0.159643 0.987175 -0.000000
vn 0.159643 0.987175 -0.000000
vn 0.159643 0.987175 -0.000000
vn -0.000000 0.000000 -1.000000
vn -0.000000 0.000000 -1.000000
vn -0.159641 -0.987175 0.000000
vn -0.159641 -0.987175 0.000000
vn -0.159641 -0.987175 0.000000
vn -0.159641 -0.987175 0.000000
vn 0.000002 0.000000 1.000000
vn 0.000002 0.000000 1.000000
vn 0.159639 0.987176 0.000000
vn 0.159639 0.987175 0.000000
vn 0.159639 0.987176 0.000000
vn 0.159639 0.987176 0.000000
vn 0.000000 0.000000 -1.000000
vn 0.000000 0.000000 -1.000000
vn -0.159639 -0.987176 0.000000
vn -0.159639 -0.987176 0.000000
vn -0.159639 -0.987176 0.000000
vn -0.159639 -0.987176 0.000000
vn 0.000000 0.000000 1.000000
vn 0.000000 0.000000 1.000000
s 1
g Roof
usemtl lambert29SG
f 71/71/1 72/117/2 4/4/3 3/134/4
s off
f 3/134/5 4/4/6 6/164/7 5/165/8
f 73/73/9 74/191/10 75/75/11 76/219/12
f 7/154/13 8/151/14 2/2/15 1/150/16
s 2
f 72/72/17 69/109/18 6/6/19 4/163/20
s 3
f 70/70/21 71/133/22 3/3/23 5/166/24
s off
f 78/77/25 77/188/26 79/79/27 80/216/28
s 3
f 7/7/29 1/1/30 11/149/31 10/162/32
s 1
f 1/150/33 2/2/34 12/132/35 11/11/36
s 2
f 2/153/37 8/152/38 9/9/39 12/12/40
s off
f 14/214/41 13/13/42 9/190/43 10/10/44
s 3
f 10/162/32 11/149/31 15/148/45 14/14/46
s 1
f 11/11/36 12/132/35 16/131/47 15/15/48
s 2
f 12/12/40 9/9/39 13/116/49 16/16/50
s off
f 82/81/51 81/185/52 83/83/53 84/213/54
s 3
f 14/14/46 15/148/45 19/147/55 18/161/56
s 1
f 15/15/48 16/131/47 20/130/57 19/19/58
s 2
f 16/16/50 13/116/49 17/17/59 20/20/60
s off
f 22/211/61 21/21/62 17/187/63 18/18/64
s 3
f 18/161/56 19/147/55 23/146/65 22/22/66
s 1
f 19/19/58 20/130/57 24/129/67 23/23/68
s 2
f 20/20/60 17/17/59 21/115/69 24/24/70
s off
f 86/85/71 85/182/72 87/87/73 88/210/74
s 3
f 22/22/66 23/146/65 27/145/75 26/160/76
s 1
f 23/23/68 24/129/67 28/128/77 27/27/78
s 2
f 24/24/70 21/115/69 25/25/79 28/28/80
s off
f 30/208/81 29/29/82 25/184/83 26/26/84
s 3
f 26/160/76 27/145/75 31/144/85 30/30/86
s 1
f 27/27/78 28/128/77 32/127/87 31/31/88
s 2
f 28/28/80 25/25/79 29/114/89 32/32/90
s off
f 90/89/91 89/179/92 91/91/93 92/207/94
s 3
f 30/30/86 31/144/85 35/143/95 34/159/96
s 1
f 31/31/88 32/127/87 36/126/97 35/35/98
s 2
f 32/32/90 29/114/89 33/33/99 36/36/100
s off
f 38/205/101 37/37/102 33/181/103 34/34/104
s 3
f 34/159/96 35/143/95 39/142/105 38/38/106
s 1
f 35/35/98 36/126/97 40/125/107 39/39/108
s 2
f 36/36/100 33/33/99 37/113/109 40/40/110
s off
f 94/93/111 93/176/112 95/95/113 96/204/114
s 3
f 38/38/106 39/142/105 43/141/115 42/158/116
s 1
f 39/39/108 40/125/107 44/124/117 43/43/118
s 2
f 40/40/110 37/113/109 41/41/119 44/44/120
s off
f 46/202/121 45/45/122 41/178/123 42/42/124
s 3
f 42/158/116 43/141/115 47/140/125 46/46/126
s 1
f 43/43/118 44/124/117 48/123/127 47/47/128
s 2
f 44/44/120 41/41/119 45/112/129 48/48/130
s off
f 98/97/131 97/173/132 99/99/133 100/201/134
s 3
f 46/46/126 47/140/125 51/139/135 50/157/136
s 1
f 47/47/128 48/123/127 52/122/137 51/51/138
s 2
f 48/48/130 45/112/129 49/49/139 52/52/140
s off
f 54/199/141 53/53/142 49/175/143 50/50/144
s 3
f 50/157/136 51/139/135 55/138/145 54/54/146
s 1
f 51/51/138 52/122/137 56/121/147 55/55/148
s 2
f 52/52/140 49/49/139 53/111/149 56/56/150
s off
f 102/101/151 101/170/152 103/103/153 104/198/154
s 3
f 54/54/146 55/138/145 59/137/155 58/156/156
s 1
f 55/55/148 56/121/147 60/120/157 59/59/158
s 2
f 56/56/150 53/111/149 57/57/159 60/60/160
s off
f 62/196/161 61/61/162 57/172/163 58/222/164
s 3
f 58/156/156 59/137/155 63/136/165 62/62/166
s 1
f 59/59/158 60/120/157 64/119/167 63/63/168
s 2
f 60/60/160 57/57/159 61/110/169 64/64/170
s off
f 106/105/171 105/167/172 107/107/173 108/195/174
s 3
f 62/62/166 63/136/165 67/135/175 66/155/176
s 1
f 63/63/168 64/119/167 68/118/177 67/67/178
s 2
f 64/64/170 61/110/169 65/65/179 68/68/180
s off
f 70/220/181 69/69/182 65/169/183 66/66/184
s 3
f 66/155/176 67/135/175 71/133/22 70/70/21
s 1
f 67/67/178 68/118/177 72/117/2 71/71/1
s 2
f 68/68/180 65/65/179 69/109/18 72/72/17
s off
f 5/5/185 6/193/186 74/191/187 73/73/188
s 2
f 6/6/19 69/109/18 75/192/189 74/74/190
s off
f 69/69/191 70/220/192 76/219/193 75/75/194
s 3
f 70/70/21 5/166/24 73/218/195 76/76/196
s off
f 10/10/197 9/190/198 77/188/199 78/77/200
s 2
f 9/9/39 8/152/38 79/189/201 77/78/202
s off
f 8/8/203 7/217/204 80/216/205 79/79/206
s 3
f 7/7/29 10/162/32 78/215/207 80/80/208
s off
f 18/18/209 17/187/210 81/185/211 82/81/212
s 2
f 17/17/59 13/116/49 83/186/213 81/82/214
s off
f 13/13/215 14/214/216 84/213/217 83/83/218
s 3
f 14/14/46 18/161/56 82/212/219 84/84/220
s off
f 26/26/221 25/184/222 85/182/223 86/85/224
s 2
f 25/25/79 21/115/69 87/183/225 85/86/226
s off
f 21/21/227 22/211/228 88/210/229 87/87/230
s 3
f 22/22/66 26/160/76 86/209/231 88/88/232
s off
f 34/34/233 33/181/234 89/179/235 90/89/236
s 2
f 33/33/99 29/114/89 91/180/237 89/90/238
s off
f 29/29/239 30/208/240 92/207/241 91/91/242
s 3
f 30/30/86 34/159/96 90/206/243 92/92/244
s off
f 42/42/245 41/178/246 93/176/247 94/93/248
s 2
f 41/41/119 37/113/109 95/177/249 93/94/250
s off
f 37/37/251 38/205/252 96/204/253 95/95/254
s 3
f 38/38/106 42/158/116 94/203/255 96/96/256
s off
f 50/50/257 49/175/258 97/173/259 98/97/260
s 2
f 49/49/139 45/112/129 99/174/261 97/98/262
s off
f 45/45/263 46/202/264 100/201/265 99/99/266
s 3
f 46/46/126 50/157/136 98/200/267 100/100/268
s off
f 58/58/269 57/221/270 101/170/271 102/101/272
s 2
f 57/57/159 53/111/149 103/171/273 101/102/274
s off
f 53/53/275 54/199/276 104/198/277 103/103/278
s 3
f 54/54/146 58/156/156 102/197/279 104/104/280
s off
f 66/66/281 65/169/282 105/167/283 106/105/284
s 2
f 65/65/179 61/110/169 107/168/285 105/106/286
s off
f 61/61/287 62/196/288 108/195/289 107/107/290
s 3
f 62/62/166 66/155/176 106/194/291 108/108/292
