# This file uses centimeters as units for non-parametric coordinates.

mtllib A_WallBigWindow.mtl
g default
v 0.000000 0.000000 20.000000
v -299.999969 0.000000 20.000000
v -299.999969 0.000000 0.000000
v 0.000000 0.000000 0.000000
v 0.000000 300.000061 0.000000
v 0.000000 300.000061 20.000000
v -14.373642 15.663147 0.000000
v -14.373642 284.336884 0.000000
v -285.626312 15.663147 0.000000
v -14.373642 15.663147 3.118896
v -14.373642 284.336884 3.118896
v -285.626312 15.663147 3.118896
v -198.512146 71.462982 20.000000
v -98.512161 71.462982 20.000000
v -98.512161 71.462982 3.118896
v -198.512146 71.462982 3.118896
v -98.512161 221.462997 20.000000
v -98.512161 221.462997 3.118896
v -198.512146 221.462997 3.118896
v -198.512146 221.462997 20.000000
v -285.626312 284.336884 0.000000
v -285.626312 284.336884 3.118896
v -299.999969 300.000061 20.000000
v -299.999969 300.000061 0.000000
vt 0.527543 0.527543
vt 0.527543 0.000000
vt 0.829893 0.000000
vt 0.669365 0.527824
vt 0.754491 0.527632
vt 0.000000 0.527543
vt 0.697124 0.502785
vt 0.726883 0.502426
vt 0.804565 0.027495
vt 0.000000 0.527543
vt 0.000000 1.000000
vt 0.476992 0.527543
vt 0.401857 0.178512
vt 0.401857 0.354360
vt 0.147927 0.625678
vt 0.323775 0.625678
vt 0.138086 0.354360
vt 0.147927 0.889450
vt 0.323775 0.889450
vt 0.138086 0.178512
vt 0.803653 0.499950
vt 0.476992 1.000000
vt 0.000000 0.000000
vt 0.753142 0.000090
vt 1.000000 0.703391
vt 1.000000 0.879238
vt 1.000000 0.439619
vt 1.000000 0.263772
vt 0.720179 0.025450
vt 0.799080 0.027484
vt 0.943028 0.499995
vt 0.702608 0.502832
vt 0.725663 0.025436
vt 0.828876 0.527543
vt 0.798169 0.499940
vt 1.000000 0.000000
vt 0.701201 0.025811
vt 0.706686 0.025858
vt 0.721398 0.502440
vt 0.937544 0.499996
vt 0.937465 0.027539
vt 0.942949 0.027538
vt 0.912273 0.527543
vt 0.912185 0.000000
vt 0.673875 0.000301
vt 0.970315 0.000000
vt 0.970315 0.879238
vt 0.970315 0.703391
vt 0.970315 0.439619
vt 0.970315 0.263772
vt 0.864045 0.527610
vt 0.788311 0.000000
vt 0.789660 0.527542
vt 0.877103 0.527549
vt 0.638707 0.000000
vt 0.865063 0.000068
vt 0.877015 0.000006
vt 0.634197 0.527524
vn 0.000000 -1.000000 0.000000
vn 0.000000 -1.000000 0.000000
vn 0.000000 -1.000000 0.000000
vn 0.000000 -1.000000 0.000000
vn 1.000000 0.000000 0.000000
vn 1.000000 0.000000 0.000000
vn 1.000000 0.000000 0.000000
vn 1.000000 0.000000 0.000000
vn 0.000000 0.000000 -1.000000
vn 0.000000 0.000000 -1.000000
vn 0.000000 0.000000 -1.000000
vn 0.000000 0.000000 -1.000000
vn 0.000000 0.000000 -1.000000
vn 0.000000 0.000000 -1.000000
vn -1.000000 0.000000 0.000000
vn -1.000000 0.000000 0.000000
vn -1.000000 0.000000 0.000000
vn -1.000000 0.000000 0.000000
vn 0.000000 1.000000 0.000000
vn 0.000000 1.000000 0.000000
vn 0.000000 1.000000 0.000000
vn 0.000000 1.000000 0.000000
vn 0.000000 1.000000 0.000000
vn 0.000000 1.000000 0.000000
vn 0.000000 1.000000 0.000000
vn 0.000000 1.000000 0.000000
vn -1.000000 0.000000 0.000000
vn -1.000000 0.000000 0.000000
vn -1.000000 0.000000 0.000000
vn -1.000000 0.000000 0.000000
vn 1.000000 0.000000 0.000000
vn 1.000000 0.000000 0.000000
vn 1.000000 0.000000 0.000000
vn 1.000000 0.000000 0.000000
vn 0.000000 -1.000000 0.000000
vn 0.000000 -1.000000 0.000000
vn 0.000000 -1.000000 0.000000
vn 0.000000 -1.000000 0.000000
vn 0.000000 -1.000000 0.000000
vn 0.000000 -1.000000 0.000000
vn 0.000000 -1.000000 0.000000
vn 0.000000 -1.000000 0.000000
vn 1.000000 0.000000 0.000000
vn 1.000000 0.000000 0.000000
vn 1.000000 0.000000 0.000000
vn 1.000000 0.000000 0.000000
vn -1.000000 0.000000 0.000000
vn -1.000000 0.000000 0.000000
vn -1.000000 0.000000 0.000000
vn -1.000000 0.000000 0.000000
vn 0.000000 1.000000 0.000000
vn 0.000000 1.000000 0.000000
vn 0.000000 1.000000 0.000000
vn 0.000000 1.000000 0.000000
vn 0.000000 0.000000 -1.000000
vn 0.000000 0.000000 -1.000000
vn -0.000000 0.000000 1.000000
vn -0.000000 0.000000 1.000000
vn -0.000000 0.000000 1.000000
vn -0.000000 0.000000 1.000000
vn 0.000000 0.000000 1.000000
vn 0.000000 0.000000 1.000000
vn 0.000000 0.000000 1.000000
vn 0.000000 0.000000 1.000000
vn -0.000000 0.000000 -1.000000
vn -0.000000 0.000000 -1.000000
vn -0.000000 0.000000 -1.000000
vn -0.000000 0.000000 -1.000000
vn 0.000000 0.000000 -1.000000
vn 0.000000 0.000000 -1.000000
vn 0.000000 0.000000 -1.000000
vn 0.000000 0.000000 -1.000000
s off
g WallBigWindow
usemtl lambert13SG
f 1/58/1 2/55/2 3/45/3 4/4/4
f 1/57/5 4/44/6 5/43/7 6/54/8
s 1
f 5/43/9 4/44/10 7/41/11 8/40/12
f 4/4/10 3/45/13 9/37/14 7/7/11
s off
f 8/40/15 7/41/16 10/42/17 11/31/18
f 7/7/19 9/37/20 12/38/21 10/32/22
f 13/49/23 14/50/24 15/28/25 16/27/26
f 14/50/27 17/46/28 18/36/29 15/28/30
f 16/27/31 19/25/32 20/48/33 13/49/34
f 19/25/35 18/26/36 17/47/37 20/48/38
f 21/33/39 8/8/40 11/39/41 22/29/42
f 9/9/43 21/21/44 22/35/45 12/30/46
f 3/3/47 2/56/48 23/51/49 24/34/50
f 5/5/51 24/24/52 23/52/53 6/53/54
s 1
f 24/24/55 5/5/9 8/8/12 21/33/56
f 3/3/13 24/34/55 21/21/56 9/9/14
s 2
f 23/23/57 2/2/58 13/13/59 20/20/60
f 6/6/61 17/17/62 14/14/63 1/1/64
s 3
f 19/19/65 16/16/66 12/12/67 22/22/68
f 11/11/69 18/18/70 19/19/65 22/22/68
f 10/10/71 15/15/72 18/18/70 11/11/69
f 12/12/67 16/16/66 15/15/72 10/10/71
s 2
f 6/6/61 23/23/57 20/20/60 17/17/62
f 13/13/59 2/2/58 1/1/64 14/14/63
