# This file uses centimeters as units for non-parametric coordinates.

mtllib A_Wall_DoubleDoor.mtl
g default
v 0.000000 0.000000 0.000000
v -300.000000 0.000000 0.000000
v 0.000000 300.000061 0.000000
v -300.000000 300.000061 0.000000
v 0.000000 300.000061 20.000000
v -300.000000 300.000061 20.000000
v 0.000000 0.000000 20.000000
v -300.000000 0.000000 20.000000
v -14.373642 15.663208 0.000000
v -285.626343 15.663208 0.000000
v -285.626343 284.336914 0.000000
v -14.373642 284.336914 0.000000
v -14.373642 15.663208 3.118896
v -285.626343 15.663208 3.118896
v -285.626343 284.336914 3.118896
v -14.373642 284.336914 3.118896
v -285.626343 234.905579 3.118896
v -14.373657 234.905579 3.118896
v -14.373657 234.905579 0.000000
v 0.000000 244.805237 0.000000
v 0.000000 244.805237 20.000000
v -300.000000 244.805237 20.000000
v -300.000000 244.805237 0.000000
v -285.626343 234.905579 0.000000
v -29.593651 284.336914 0.000000
v -16.833023 300.000061 0.000000
v -16.833023 300.000061 20.000000
v -16.833023 244.805237 20.000000
v -16.833023 0.000000 20.000000
v -16.833023 0.000000 0.000000
v -29.593651 15.663086 0.000000
v -29.593651 15.663086 3.118896
v -29.593674 234.905579 3.118896
v -29.593651 284.336914 3.118896
v -268.284027 284.336914 0.000000
v -280.819702 300.000061 0.000000
v -280.819702 300.000061 20.000000
v -280.819702 244.805237 20.000000
v -280.819702 0.000000 20.000000
v -280.819702 0.000000 0.000000
v -268.284027 15.663208 0.000000
v -268.284027 15.663208 3.118896
v -268.284027 234.905579 3.118896
v -268.284027 284.336914 3.118896
vt 0.708854 0.526180
vt 0.708854 0.000000
vt 0.883707 0.526180
vt 0.795619 0.526180
vt 0.526148 0.528570
vt 0.000000 0.528570
vt 0.848628 0.000000
vt 0.673776 0.000000
vt 0.736326 0.501704
vt 0.736326 0.025945
vt 0.823091 0.501057
vt 0.908917 0.499514
vt 0.000000 0.528966
vt 0.475756 0.528570
vt 0.828561 0.501058
vt 0.914388 0.499514
vt 0.934241 0.411798
vt 0.000000 0.913301
vt 0.908917 0.412814
vt 0.883707 0.429372
vt 0.526148 0.431767
vt 0.000000 0.431767
vt 0.964921 0.429372
vt 0.939711 0.411798
vt 0.823091 0.051993
vt 0.795619 0.029524
vt 0.496626 0.528570
vt 0.739865 1.000000
vt 0.890708 0.570628
vt 0.708854 0.496656
vt 0.736326 0.475009
vt 0.724922 0.559448
vt 0.853106 0.982593
vt 0.828561 0.051993
vt 0.823091 0.470640
vt 0.795619 0.492539
vt 0.033639 0.528570
vt 0.834536 0.570628
vt 0.683641 1.000000
vt 0.708854 0.033641
vt 0.736326 0.056363
vt 0.798585 0.972612
vt 0.774987 0.559034
vt 0.828561 0.470640
vt 0.445339 0.528570
vt 0.445339 0.913301
vt 0.026695 0.913301
vt 0.741797 0.475009
vt 0.741797 0.056363
vt 0.026695 0.528966
vt 0.445339 1.000000
vt 0.475756 1.000000
vt 0.026695 1.000000
vt 0.914388 0.412814
vt 0.000000 1.000000
vt 0.475756 0.913301
vt 0.741797 0.501704
vt 0.934241 0.027261
vt 0.823091 0.025299
vt 0.828562 0.025299
vt 0.939711 0.498497
vt 0.934241 0.498497
vt 0.939711 0.027261
vt 0.741797 0.025945
vt 0.908917 0.028278
vt 0.914388 0.028278
vt 0.795619 0.000000
vt 0.964921 0.526180
vt 0.964921 0.000000
vt 0.883707 0.000000
vt 0.673775 0.033641
vt 1.000000 0.000000
vt 0.000000 0.000000
vt 0.760540 0.492539
vt 1.000000 0.526180
vt 0.760540 0.526180
vt 0.673776 0.496656
vt 0.760540 0.029524
vt 1.000000 0.429372
vt 0.848628 0.429372
vt 0.673776 0.526180
vt 0.526148 0.004863
vt 0.760540 0.000000
vt 0.848628 0.526180
vt 0.033639 0.431767
vt 0.033639 0.000000
vt 0.496626 0.431767
vt 0.496626 0.004863
vt 0.890201 1.000000
vt 0.774230 0.977681
vt 0.684577 0.536986
vt 0.853560 0.598057
vt 0.835528 0.999999
vt 0.724076 0.978094
vt 0.740703 0.536986
vt 0.797697 0.588077
vn 0.000000 0.000000 -1.000000
vn 0.000000 0.000000 -1.000000
vn 0.000000 0.000000 -1.000000
vn 0.000000 0.000000 -1.000000
vn 0.000000 1.000000 0.000000
vn 0.000000 1.000000 0.000000
vn 0.000000 1.000000 0.000000
vn 0.000000 1.000000 0.000000
vn 0.000000 0.000000 1.000000
vn 0.000000 0.000000 1.000000
vn 0.000000 0.000000 1.000000
vn 0.000000 0.000000 1.000000
vn 0.000000 -1.000000 0.000000
vn 0.000000 -1.000000 0.000000
vn 0.000000 -1.000000 0.000000
vn 0.000000 -1.000000 0.000000
vn -1.000000 0.000000 0.000000
vn -1.000000 0.000000 0.000000
vn -1.000000 0.000000 0.000000
vn -1.000000 0.000000 0.000000
vn 1.000000 0.000000 0.000000
vn 1.000000 0.000000 0.000000
vn 1.000000 0.000000 0.000000
vn 1.000000 0.000000 0.000000
vn 0.000000 0.000000 -1.000000
vn 0.000000 0.000000 -1.000000
vn 0.000000 0.000000 -1.000000
vn 0.000000 0.000000 -1.000000
vn 0.000000 0.000000 -1.000000
vn 0.000000 0.000000 -1.000000
vn 0.000000 0.000000 -1.000000
vn 0.000000 0.000000 -1.000000
vn 0.000000 0.000000 -1.000000
vn 0.000000 0.000000 -1.000000
vn 0.000000 0.000000 -1.000000
vn 0.000000 0.000000 -1.000000
vn 0.000000 0.000000 -1.000000
vn 0.000000 0.000000 -1.000000
vn -0.000008 1.000000 0.000000
vn 0.000000 1.000000 0.000000
vn 0.000000 1.000000 0.000000
vn -0.000008 1.000000 0.000000
vn 1.000000 0.000000 0.000000
vn 1.000000 0.000000 0.000000
vn 1.000000 0.000000 0.000000
vn 1.000000 0.000000 0.000000
vn 0.000000 -1.000000 0.000000
vn 0.000000 -1.000000 0.000000
vn 0.000000 -1.000000 0.000000
vn 0.000000 -1.000000 0.000000
vn -1.000000 -0.000000 0.000000
vn -1.000000 -0.000000 0.000000
vn -1.000000 -0.000000 0.000000
vn -1.000000 -0.000000 0.000000
vn 0.000000 0.000000 -1.000000
vn 0.000000 0.000000 -1.000000
vn -1.000000 0.000000 0.000000
vn -1.000000 0.000000 0.000000
vn 1.000000 0.000000 0.000000
vn 1.000000 0.000000 0.000000
vn 0.000000 0.000000 1.000000
vn 0.000000 0.000000 1.000000
vn -1.000000 0.000000 0.000000
vn -1.000000 0.000000 0.000000
vn 0.000000 0.000000 -1.000000
vn 0.000000 0.000000 -1.000000
vn 1.000000 0.000000 0.000000
vn 1.000000 0.000000 0.000000
vn 0.000000 0.000000 -1.000000
vn 0.000000 0.000000 -1.000000
vn 0.000000 1.000000 0.000000
vn 0.000000 1.000000 0.000000
vn 0.000000 0.000000 1.000000
vn 0.000000 0.000000 1.000000
vn 0.000000 -1.000000 0.000000
vn 0.000000 -1.000000 0.000000
vn 0.000000 0.000000 -1.000000
vn 0.000000 0.000000 -1.000000
vn 0.000000 1.000000 0.000000
vn 0.000000 1.000000 0.000000
vn 0.000000 0.000000 -1.000000
vn 0.000000 0.000000 -1.000000
vn 0.000000 -1.000000 0.000000
vn 0.000000 -1.000000 0.000000
vn 0.000000 1.000000 0.000000
vn 0.000000 1.000000 0.000000
vn 0.000000 0.000000 1.000000
vn 0.000000 0.000000 1.000000
vn 0.000000 0.000000 1.000000
vn 0.000000 0.000000 1.000000
vn 0.000000 -1.000000 0.000000
vn 0.000000 -1.000000 0.000000
vn 0.000000 1.000000 0.000000
vn 0.000000 1.000000 0.000000
vn 0.000000 0.000000 -1.000000
vn 0.000000 0.000000 -1.000000
vn 0.000000 0.000000 -1.000000
vn 0.000000 0.000000 -1.000000
vn 0.000000 -1.000000 0.000000
vn 0.000000 -1.000000 0.000000
vn 0.802848 0.000000 0.596184
vn 0.802848 0.000000 0.596184
vn 0.802848 0.000000 0.596184
vn 0.802848 0.000000 0.596184
vn 0.000000 0.733057 0.680167
vn 0.000000 0.733057 0.680167
vn 0.000000 0.733057 0.680167
vn 0.000000 0.733057 0.680167
vn -0.797730 -0.000000 0.603014
vn -0.797730 -0.000000 0.603014
vn -0.797730 -0.000000 0.603014
vn -0.797730 -0.000000 0.603014
vn 0.000000 -0.862612 0.505866
vn 0.000000 -0.862612 0.505866
vn 0.000000 -0.862612 0.505866
vn 0.000000 -0.862612 0.505866
s 1
g WallDoubleDoor
usemtl lambert20SG
f 13/13/1 32/50/2 33/47/3 18/18/4
s 2
f 3/67/5 26/26/6 27/78/7 5/83/8
s 3
f 21/21/9 28/87/10 29/88/11 7/82/12
s 4
f 7/81/13 29/77/14 30/30/15 1/1/16
s 5
f 2/69/17 8/72/18 22/79/19 23/23/20
s 6
f 7/7/21 1/70/22 20/20/23 21/80/24
s 7
f 1/1/25 30/30/26 31/31/27 9/9/28
f 2/69/29 23/23/30 24/24/31 10/63/32
f 26/26/33 3/67/34 12/59/35 25/25/36
f 20/20/37 1/70/25 9/65/28 19/19/38
s 10
f 9/9/39 31/31/40 32/48/41 13/57/42
s 11
f 10/63/43 24/24/44 17/17/45 14/58/46
s 12
f 34/34/47 25/25/48 12/59/49 16/60/50
s 13
f 19/19/51 9/65/52 13/66/53 18/54/54
s 1
f 18/18/4 33/47/3 34/53/55 16/55/56
s 13
f 12/12/57 19/19/51 18/54/54 16/16/58
s 7
f 3/3/34 20/20/37 19/19/38 12/12/35
s 6
f 21/80/24 20/20/23 3/3/59 5/84/60
s 3
f 5/5/61 27/27/62 28/87/10 21/21/9
s 5
f 23/23/20 22/79/19 6/75/63 4/68/64
s 7
f 24/24/31 23/23/30 4/68/65 11/61/66
s 11
f 17/17/45 24/24/44 11/61/67 15/62/68
s 7
f 36/36/69 26/26/33 25/25/36 35/35/70
s 2
f 27/78/7 26/26/6 36/36/71 37/74/72
s 3
f 28/87/10 27/27/62 37/37/73 38/85/74
s 4
f 30/30/15 29/77/14 39/71/75 40/40/76
s 7
f 31/31/27 30/30/26 40/40/77 41/41/78
s 10
f 32/48/41 31/31/40 41/41/79 42/49/80
s 1
f 34/53/55 33/47/3 43/46/81 44/51/82
s 12
f 44/44/83 35/35/84 25/25/48 34/34/47
s 7
f 4/4/65 36/36/69 35/35/70 11/11/66
s 2
f 37/74/72 36/36/71 4/4/85 6/76/86
s 3
f 38/85/74 37/37/73 6/6/87 22/22/88
f 39/86/89 38/85/74 22/22/88 8/73/90
s 4
f 40/40/76 39/71/75 8/8/91 2/2/92
s 7
f 41/41/78 40/40/77 2/2/29 10/10/32
s 10
f 42/49/80 41/41/79 10/10/93 14/64/94
s 1
f 43/46/81 42/45/95 14/14/96 17/56/97
f 44/51/82 43/46/81 17/56/97 15/52/98
s 12
f 11/11/99 35/35/84 44/44/83 15/15/100
s off
f 38/38/101 39/93/102 42/42/103 43/96/104
f 39/39/105 29/91/106 32/32/107 42/94/108
f 29/29/109 28/89/110 33/33/111 32/92/112
f 28/28/113 38/95/114 43/43/115 33/90/116
