# This file uses centimeters as units for non-parametric coordinates.

mtllib A_WallSmallWindow.mtl
g default
v 645.924438 -348.355225 600.599426
v 945.924500 -348.355225 600.599426
v 645.924438 -48.355148 600.599426
v 945.924500 -48.355148 600.599426
v 645.924438 -48.355148 580.599426
v 945.924500 -48.355148 580.599426
v 645.924438 -348.355225 580.599426
v 945.924500 -348.355225 580.599426
v 660.298218 -332.692078 600.599426
v 931.550781 -332.692078 600.599426
v 931.550781 -64.018326 600.599426
v 660.298218 -64.018326 600.599426
v 660.298218 -332.692078 597.480530
v 931.550781 -332.692078 597.480530
v 931.550781 -64.018326 597.480530
v 660.298218 -64.018326 597.480530
v 817.398987 -64.018326 600.599426
v 819.674927 -48.355148 600.599426
v 819.674927 -48.355148 580.599426
v 819.674927 -348.355225 580.599426
v 819.674927 -348.355225 600.599426
v 817.398987 -332.692078 600.599426
v 817.398987 -332.692078 597.480530
v 817.398987 -64.018326 597.480530
v 767.844971 -64.018326 600.599426
v 764.869324 -48.355148 600.599426
v 764.869324 -48.355148 580.599426
v 764.869324 -348.355225 580.599426
v 764.869324 -348.355225 600.599426
v 767.844971 -332.692078 600.599426
v 767.844971 -332.692078 597.480530
v 767.844971 -64.018326 597.480530
v 931.550781 -135.718964 597.480530
v 817.398987 -135.718964 597.480530
v 767.844971 -135.718964 597.480530
v 660.298218 -135.718964 597.480530
v 660.298218 -135.718964 600.599426
v 645.924438 -128.415833 600.599426
v 645.924438 -128.415833 580.599426
v 764.869324 -128.415833 580.599426
v 819.674927 -128.415833 580.599426
v 945.924500 -128.415833 580.599426
v 945.924500 -128.415833 600.599426
v 931.550781 -135.718964 600.599426
v 931.550781 -255.818314 597.480530
v 817.398987 -255.818314 597.480530
v 767.844971 -255.818314 597.480530
v 660.298218 -255.818314 597.480530
v 660.298218 -255.818314 600.599426
v 645.924438 -262.518280 600.599426
v 645.924438 -262.518280 580.599426
v 764.869324 -262.518280 580.599426
v 819.674927 -262.518280 580.599426
v 945.924500 -262.518280 580.599426
v 945.924500 -262.518280 600.599426
v 931.550781 -255.818314 600.599426
vt 0.830668 0.566013
vt 0.830668 0.038469
vt 0.732752 0.552426
vt 0.652612 0.013836
vt 0.000000 0.000000
vt 0.527543 0.000000
vt 0.697582 0.024882
vt 0.527543 0.527543
vt 0.858211 0.540544
vt 0.858211 0.063552
vt 0.677888 0.041259
vt 0.758027 0.525119
vt 0.000000 0.527543
vt 0.476992 0.527543
vt 0.476992 1.000000
vt 0.763512 0.525119
vt 0.935464 0.230219
vt 0.963007 0.230219
vt 0.305536 0.000000
vt 0.305536 0.527543
vt 0.830668 0.262351
vt 0.858211 0.262351
vt 0.276258 0.527543
vt 0.276258 1.000000
vt 0.935464 0.322068
vt 0.963007 0.322068
vt 0.209162 0.000000
vt 0.209162 0.527543
vt 0.830668 0.354168
vt 0.858211 0.354168
vt 0.189119 0.527543
vt 0.189119 1.000000
vt 0.476992 0.873916
vt 0.561455 0.894591
vt 0.931151 0.630615
vt 0.763512 0.405376
vt 0.758027 0.405376
vt 0.732752 0.405376
vt 0.000000 0.140785
vt 0.537661 0.989525
vt 0.528881 0.893552
vt 0.617443 0.160962
vt 0.652612 0.160962
vt 0.677888 0.160962
vt 0.683373 0.384505
vt 0.650821 0.703238
vt 0.721002 0.651586
vt 0.763512 0.181795
vt 0.758027 0.181795
vt 0.732752 0.181795
vt 0.000000 0.376601
vt 0.706286 0.622763
vt 0.628667 0.679888
vt 0.617443 0.384505
vt 0.652612 0.384505
vt 0.677888 0.384505
vt 0.000000 0.662724
vt 0.000000 0.873916
vt 0.476992 0.662724
vt 0.683373 0.160962
vt 0.000000 1.000000
vt 0.929979 0.031384
vt 0.929979 0.322068
vt 0.929979 0.230219
vt 0.863696 0.354168
vt 0.863696 0.262351
vt 0.683373 0.513715
vt 0.863696 0.540544
vt 0.935464 0.508376
vt 0.929979 0.508376
vt 0.935464 0.031385
vt 0.683373 0.041259
vt 0.677888 0.513715
vt 0.863696 0.063552
vt 0.758027 0.052662
vt 0.763512 0.052662
vt 0.963007 0.533949
vt 0.963007 0.006406
vt 0.652612 0.541379
vt 0.732752 0.024882
vt 0.276258 0.662724
vt 0.189119 0.662724
vt 0.189119 0.873916
vt 0.276258 0.873916
vt 0.527543 0.376601
vt 0.795498 0.038469
vt 0.617443 0.541379
vt 0.697582 0.181795
vt 0.795498 0.566013
vt 0.000000 0.527543
vt 0.527543 0.140785
vt 0.697582 0.405376
vt 0.795498 0.354168
vt 0.795498 0.262351
vt 0.998177 0.322068
vt 0.998177 0.230219
vt 0.617443 0.013835
vt 0.998177 0.006406
vt 0.998177 0.533949
vt 0.697582 0.552426
vt 0.209162 0.376601
vt 0.305536 0.376601
vt 0.209162 0.140785
vt 0.305536 0.140785
vt 0.940936 0.599346
vt 0.569394 0.981368
vn 0.000000 0.000000 1.000000
vn 0.000000 0.000000 1.000000
vn 0.000000 0.000000 1.000000
vn 0.000000 0.000000 1.000000
vn 0.000000 1.000000 0.000000
vn 0.000000 1.000000 0.000000
vn 0.000000 1.000000 0.000000
vn 0.000000 1.000000 0.000000
vn 0.000000 0.000000 -1.000000
vn 0.000000 0.000000 -1.000000
vn 0.000000 0.000000 -1.000000
vn 0.000000 0.000000 -1.000000
vn 0.000000 -1.000000 0.000000
vn 0.000000 -1.000000 0.000000
vn 0.000000 -1.000000 0.000000
vn 0.000000 -1.000000 0.000000
vn 1.000000 0.000000 0.000000
vn 1.000000 0.000000 0.000000
vn 1.000000 0.000000 0.000000
vn 1.000000 0.000000 0.000000
vn -1.000000 0.000000 0.000000
vn -1.000000 0.000000 0.000000
vn -1.000000 0.000000 0.000000
vn -1.000000 0.000000 0.000000
vn 0.000000 0.000000 1.000000
vn 0.000000 0.000000 1.000000
vn 0.000000 0.000000 1.000000
vn 0.000000 0.000000 1.000000
vn 0.000000 0.000000 1.000000
vn 0.000000 0.000000 1.000000
vn 0.000000 0.000000 1.000000
vn 0.000000 0.000000 1.000000
vn 0.000000 0.000000 1.000000
vn 0.000000 0.000000 1.000000
vn 0.000000 0.000000 1.000000
vn 0.000000 0.000000 1.000000
vn 0.000000 0.000000 1.000000
vn 0.000001 0.000000 1.000000
vn 0.000000 1.000000 0.000000
vn 0.000000 1.000000 0.000000
vn 0.000000 1.000000 0.000000
vn 0.000000 1.000000 0.000000
vn -1.000000 0.000000 0.000000
vn -1.000000 0.000000 0.000000
vn -1.000000 0.000000 0.000000
vn -1.000000 0.000000 0.000000
vn 0.000000 -1.000000 0.000000
vn 0.000000 -1.000000 0.000000
vn 0.000000 -1.000000 0.000000
vn 0.000000 -1.000000 0.000000
vn 1.000000 0.000000 0.000000
vn 1.000000 0.000000 0.000000
vn 1.000000 0.000000 0.000000
vn 1.000000 0.000000 0.000000
vn 0.000000 0.000000 1.000000
vn 0.000000 0.000000 1.000000
vn 0.000000 0.000000 1.000000
vn 0.000000 0.000000 1.000000
vn 0.000000 1.000000 0.000000
vn 0.000000 1.000000 0.000000
vn 0.000000 1.000000 0.000000
vn 0.000000 1.000000 0.000000
vn 0.000000 0.000000 -1.000000
vn 0.000000 0.000000 -1.000000
vn 0.000000 0.000000 -1.000000
vn 0.000000 0.000000 -1.000000
vn 0.000000 -1.000000 0.000000
vn 0.000000 -1.000000 0.000000
vn 0.000000 -1.000000 0.000000
vn 0.000000 -1.000000 0.000000
vn 0.000000 0.000000 1.000000
vn 0.000000 0.000000 1.000000
vn 0.000000 1.000000 0.000000
vn 0.000000 1.000000 0.000000
vn 0.000000 1.000000 0.000000
vn 0.000000 1.000000 0.000000
vn 0.000000 0.000000 1.000000
vn 0.000000 0.000000 1.000000
vn 0.000000 0.000000 1.000000
vn 0.000000 0.000000 1.000000
vn 0.000000 -1.000000 0.000000
vn 0.000000 -1.000000 0.000000
vn 0.000000 -1.000000 0.000000
vn 0.000000 -1.000000 0.000000
vn 0.000000 0.000000 1.000000
vn 0.000000 0.000000 1.000000
vn 0.000000 0.000000 1.000000
vn 0.000000 0.000000 1.000000
vn 0.000000 0.000000 1.000000
vn 0.000000 0.000000 1.000000
vn 0.000000 0.000000 1.000000
vn 0.000000 0.000000 1.000000
vn 1.000000 0.000000 0.000000
vn 1.000000 0.000000 0.000000
vn 1.000000 0.000000 0.000000
vn 1.000000 0.000000 0.000000
vn 0.000001 0.000000 1.000000
vn 0.000001 0.000000 1.000000
vn -1.000000 0.000000 0.000000
vn -1.000000 0.000000 0.000000
vn -1.000000 0.000000 0.000000
vn -1.000000 0.000000 0.000000
vn 0.000000 0.000000 -1.000000
vn 0.000000 0.000000 -1.000000
vn 0.000000 0.000000 -1.000000
vn 0.000000 0.000000 -1.000000
vn 0.000000 0.000000 -1.000000
vn 0.000000 0.000000 -1.000000
vn 0.000000 0.000000 -1.000000
vn 0.000000 0.000000 -1.000000
vn 1.000000 0.000000 0.000000
vn 1.000000 0.000000 0.000000
vn 1.000000 0.000000 0.000000
vn 1.000000 0.000000 0.000000
vn 0.000000 0.000000 1.000000
vn 0.000000 0.000000 1.000000
vn -1.000000 0.000000 0.000000
vn -1.000000 0.000000 0.000000
vn -1.000000 0.000000 0.000000
vn -1.000000 0.000000 0.000000
vn 0.000000 0.929470 -0.368898
vn 0.000000 0.929470 -0.368898
vn 0.000000 0.929470 -0.368898
vn 0.000000 0.929470 -0.368898
vn -0.991034 0.000000 -0.133613
vn -0.991034 0.000000 -0.133613
vn -0.991034 0.000000 -0.133613
vn -0.991034 0.000000 -0.133613
vn 0.984817 0.000000 -0.173595
vn 0.984817 0.000000 -0.173595
vn 0.984817 0.000000 -0.173595
vn 0.984817 0.000000 -0.173595
vn 0.000000 -0.917794 -0.397058
vn 0.000000 -0.917794 -0.397058
vn 0.000000 -0.917794 -0.397058
vn 0.000000 -0.917794 -0.397058
s 1
g WallSmallWindow
usemtl lambert11SG
f 13/13/1 31/31/2 47/82/3 48/57/4
s 2
f 3/77/5 26/26/6 27/95/7 5/99/8
s 3
f 51/51/9 52/101/10 28/28/11 7/90/12
s 4
f 7/89/13 28/93/14 29/29/15 1/1/16
s 5
f 2/79/17 8/87/18 54/54/19 55/55/20
s 6
f 7/7/21 1/80/22 50/50/23 51/88/24
s 7
f 1/1/25 29/29/26 30/30/27 9/9/28
f 2/79/29 55/55/30 56/56/31 10/73/32
f 26/26/33 3/77/34 12/69/35 25/25/36
f 50/50/37 1/80/25 9/75/28 49/49/38
s 10
f 9/9/39 30/30/40 31/65/41 13/68/42
s 11
f 10/73/43 56/56/44 45/45/45 14/67/46
s 12
f 32/63/47 25/25/48 12/69/49 16/70/50
s 13
f 49/49/51 9/75/52 13/76/53 48/48/54
s 7
f 4/78/55 18/18/56 17/17/57 11/71/58
s 2
f 19/96/59 18/18/60 4/78/61 6/98/62
s 3
f 20/20/63 53/102/64 54/85/65 8/8/66
s 4
f 21/21/67 20/94/68 8/86/69 2/2/70
s 7
f 22/22/71 21/21/72 2/2/29 10/10/32
s 10
f 23/66/73 22/22/74 10/10/75 14/74/76
s 1
f 46/81/77 23/23/78 14/14/79 45/59/80
s 12
f 11/71/81 17/17/82 24/64/83 15/62/84
s 7
f 18/18/56 26/26/33 25/25/36 17/17/57
s 2
f 27/95/7 26/26/6 18/18/60 19/96/59
s 3
f 28/28/11 52/101/10 53/102/64 20/20/63
s 4
f 29/29/15 28/93/14 20/94/68 21/21/67
s 7
f 30/30/27 29/29/26 21/21/72 22/22/71
s 10
f 31/65/41 30/30/40 22/22/74 23/66/73
s 1
f 47/82/3 31/31/2 23/23/78 46/81/77
s 12
f 24/64/83 17/17/82 25/25/48 32/63/47
s 1
f 24/24/85 34/84/86 33/33/87 15/15/88
f 32/32/89 35/83/90 34/84/86 24/24/85
f 36/58/91 35/83/90 32/32/89 16/61/92
s 13
f 12/12/93 37/37/94 36/36/95 16/16/96
s 7
f 3/3/34 38/38/97 37/37/98 12/12/35
s 6
f 39/92/99 38/38/100 3/3/101 5/100/102
s 3
f 5/5/103 27/27/104 40/103/105 39/39/106
f 41/104/107 40/103/105 27/27/104 19/19/108
f 42/91/109 41/104/107 19/19/108 6/6/110
s 5
f 43/43/111 42/42/112 6/97/113 4/4/114
s 7
f 44/44/115 43/43/116 4/4/55 11/11/58
s 11
f 33/60/117 44/44/118 11/11/119 15/72/120
s 1
f 34/84/86 46/81/77 45/59/80 33/33/87
f 48/57/4 47/82/3 35/83/90 36/58/91
s 13
f 37/37/94 49/49/51 48/48/54 36/36/95
s 7
f 38/38/97 50/50/37 49/49/38 37/37/98
s 6
f 51/88/24 50/50/23 38/38/100 39/92/99
s 3
f 39/39/106 40/103/105 52/101/10 51/51/9
f 54/85/65 53/102/64 41/104/107 42/91/109
s 5
f 55/55/20 54/54/19 42/42/112 43/43/111
s 7
f 56/56/31 55/55/30 43/43/116 44/44/115
s 11
f 45/45/45 56/56/44 44/44/118 33/60/117
s off
f 47/47/121 46/46/122 53/53/123 52/52/124
f 41/41/125 53/53/126 46/46/127 34/34/128
f 52/52/129 40/105/130 35/35/131 47/47/132
f 34/34/133 35/106/134 40/40/135 41/41/136
