# This file uses centimeters as units for non-parametric coordinates.

mtllib A_Floor.mtl
g default
v -580.993896 1.432041 834.026123
v -575.374512 -0.895580 834.026123
v -575.374512 1.432041 839.645447
v -575.374512 7.051414 841.973083
v -580.993896 7.051414 839.645447
v -583.321533 7.051414 834.026123
v -250.148026 1.432041 834.026123
v -247.820404 7.051414 834.026123
v -250.148026 7.051414 839.645447
v -255.767395 7.051414 841.973083
v -255.767395 1.432041 839.645447
v -255.767395 -0.895580 834.026123
v -580.993896 28.567955 834.026123
v -583.321533 22.948582 834.026123
v -580.993896 22.948582 839.645447
v -575.374512 22.948582 841.973083
v -575.374512 28.567955 839.645447
v -575.374512 30.895573 834.026123
v -250.148026 28.567955 834.026123
v -255.767395 30.895573 834.026123
v -255.767395 28.567955 839.645447
v -255.767395 22.948582 841.973083
v -250.148026 22.948582 839.645447
v -247.820404 22.948582 834.026123
v -580.993896 22.948582 414.331451
v -583.321533 22.948582 419.950836
v -580.993896 28.567955 419.950836
v -575.374512 30.895573 419.950836
v -575.374512 28.567955 414.331451
v -575.374512 22.948582 412.003845
v -250.148026 22.948582 414.331451
v -255.767395 22.948582 412.003845
v -255.767395 28.567955 414.331451
v -255.767395 30.895573 419.950836
v -250.148026 28.567955 419.950836
v -247.820404 22.948582 419.950836
v -580.993896 1.432041 419.950836
v -583.321533 7.051414 419.950836
v -580.993896 7.051414 414.331451
v -575.374512 7.051414 412.003845
v -575.374512 1.432041 414.331451
v -575.374512 -0.895580 419.950836
v -250.148026 1.432041 419.950836
v -255.767395 -0.895580 419.950836
v -255.767395 1.432041 414.331451
v -255.767395 7.051414 412.003845
v -250.148026 7.051414 414.331451
v -247.820404 7.051414 419.950836
v -579.961121 2.464818 838.612671
v -251.180801 2.464818 838.612671
v -579.961121 27.535179 838.612671
v -251.180801 27.535179 838.612671
v -579.961121 27.535179 415.364197
v -251.180801 27.535179 415.364197
v -579.961121 2.464818 415.364197
v -251.180801 2.464818 415.364197
vt 0.008293 0.008299
vt 0.744261 0.500293
vt 0.008293 0.491703
vt 0.699258 0.645119
vt 0.769155 0.500293
vt 0.769155 0.008272
vt 0.724066 0.645119
vt 0.654264 0.644568
vt 0.634552 0.991740
vt 0.634552 0.508262
vt 0.724066 0.008328
vt 0.699258 0.008328
vt 0.634509 0.491703
vt 0.814161 0.499638
vt 0.814161 0.008371
vt 0.744261 0.008272
vt 0.008255 0.991740
vt 0.008255 0.508262
vt 0.789419 0.499638
vt 0.789419 0.008371
vt 0.634509 0.008299
vt 0.654264 0.008394
vt 0.678971 0.008394
vt 0.678971 0.644568
vt 0.008293 0.000000
vt 0.735970 0.500293
vt 0.654264 0.000000
vt 0.690911 0.645119
vt 0.744261 0.000000
vt 0.000000 0.491703
vt 0.687384 0.008394
vt 0.769155 0.508565
vt 0.000000 0.991740
vt 0.008255 0.500002
vt 0.777445 0.008272
vt 0.724066 0.653447
vt 0.678971 0.652963
vt 0.634552 1.000000
vt 0.781030 0.499638
vt 0.789419 0.000000
vt 0.642808 0.508262
vt 0.732412 0.008328
vt 0.645852 0.644568
vt 0.814161 0.508009
vt 0.642803 0.008299
vt 0.634509 0.500002
vt 0.822550 0.008371
vt 0.699258 0.000000
vt 0.000000 0.000000
vt 0.690911 0.653447
vt 0.687384 0.000000
vt 0.000000 0.500002
vt 0.687384 0.652963
vt 0.781030 0.000000
vt 0.645852 0.652963
vt 0.642803 0.500002
vt 0.642803 0.491703
vt 0.690911 0.000000
vt 0.822550 0.000000
vt 0.814161 0.000000
vt 0.690911 0.008328
vt 0.654264 0.652963
vt 0.642803 0.000000
vt 0.822550 0.508009
vt 0.822550 0.499638
vt 0.634509 0.000000
vt 0.781030 0.008371
vt 0.732412 0.000000
vt 0.642808 0.500002
vt 0.634552 0.500002
vt 0.724066 0.000000
vt 0.687384 0.644568
vt 0.781030 0.508009
vt 0.642808 1.000000
vt 0.642808 0.991740
vt 0.789419 0.508009
vt 0.000000 0.508262
vt 0.732412 0.653447
vt 0.777445 0.000000
vt 0.769155 0.000000
vt 0.732412 0.645119
vt 0.678971 0.000000
vt 0.000000 1.000000
vt 0.777445 0.508565
vt 0.777445 0.500293
vt 0.008255 1.000000
vt 0.699258 0.653447
vt 0.000000 0.500002
vt 0.735970 0.000000
vt 0.735970 0.008272
vt 0.008293 0.500002
vt 0.000000 0.008299
vt 0.645852 0.000000
vt 0.735970 0.508565
vt 0.744261 0.508565
vt 0.645852 0.008394
vn -0.007124 -0.999960 0.005513
vn -0.382296 -0.924034 0.003436
vn -0.382296 -0.924034 -0.003436
vn -0.007124 -0.999959 -0.005513
vn -0.924033 -0.382299 0.003436
vn -0.994230 -0.107154 0.005021
vn -0.994230 -0.107154 -0.005021
vn -0.924033 -0.382299 -0.003436
vn -0.006481 -0.107038 0.994234
vn -0.004439 -0.382187 0.924075
vn 0.004439 -0.382187 0.924075
vn 0.006481 -0.107038 0.994234
vn -0.004439 -0.924074 0.382187
vn 0.007124 -0.999959 0.005513
vn 0.004439 -0.924074 0.382187
vn -0.924785 -0.071421 0.373726
vn -0.924785 0.071421 0.373726
vn -0.994230 0.107154 0.005021
vn -0.373727 -0.071421 0.924785
vn -0.006481 0.107038 0.994234
vn -0.373726 0.071421 0.924785
vn 0.994230 -0.107154 0.005021
vn 0.924033 -0.382299 0.003436
vn 0.924033 -0.382299 -0.003436
vn 0.994230 -0.107154 -0.005021
vn 0.382298 -0.924033 0.003436
vn 0.007124 -0.999960 -0.005513
vn 0.382298 -0.924033 -0.003436
vn 0.373727 -0.071421 0.924785
vn 0.373728 0.071421 0.924785
vn 0.006481 0.107038 0.994234
vn 0.924786 -0.071421 0.373724
vn 0.994230 0.107154 0.005021
vn 0.924786 0.071421 0.373724
vn -0.924033 0.382299 0.003436
vn -0.924033 0.382298 -0.003436
vn -0.994230 0.107154 -0.005021
vn -0.382295 0.924034 0.003436
vn -0.007124 0.999960 0.005513
vn -0.007124 0.999959 -0.005513
vn -0.382295 0.924034 -0.003436
vn -0.004439 0.924074 0.382187
vn 0.004439 0.924074 0.382187
vn 0.007124 0.999959 0.005513
vn -0.004439 0.382187 0.924075
vn 0.004439 0.382187 0.924075
vn 0.382297 0.924033 0.003436
vn 0.382297 0.924033 -0.003436
vn 0.007124 0.999960 -0.005513
vn 0.924033 0.382299 0.003436
vn 0.994230 0.107154 -0.005021
vn 0.924033 0.382298 -0.003436
vn -0.924786 0.071420 -0.373724
vn -0.924786 -0.071421 -0.373724
vn -0.373720 0.071420 -0.924788
vn -0.006481 0.107037 -0.994234
vn -0.006481 -0.107037 -0.994234
vn -0.373721 -0.071420 -0.924787
vn -0.004439 0.382182 -0.924076
vn 0.004439 0.382182 -0.924076
vn 0.006481 0.107037 -0.994234
vn -0.004439 0.924076 -0.382183
vn 0.004439 0.924076 -0.382184
vn 0.373721 0.071420 -0.924788
vn 0.373722 -0.071420 -0.924787
vn 0.006481 -0.107037 -0.994234
vn 0.924787 0.071421 -0.373722
vn 0.924787 -0.071421 -0.373722
vn -0.004439 -0.924076 -0.382184
vn 0.004439 -0.924076 -0.382184
vn -0.004439 -0.382182 -0.924076
vn 0.004439 -0.382182 -0.924076
vn -0.887918 -0.325270 0.325272
vn -0.325268 -0.887918 0.325272
vn -0.325278 -0.325267 0.887916
vn 0.325270 -0.887917 0.325273
vn 0.887918 -0.325268 0.325272
vn 0.325277 -0.325269 0.887916
vn -0.325267 0.887919 0.325270
vn -0.887916 0.325272 0.325274
vn -0.325276 0.325268 0.887917
vn 0.887917 0.325270 0.325273
vn 0.325271 0.887917 0.325273
vn 0.325280 0.325269 0.887915
vn -0.325262 0.325267 -0.887922
vn -0.887921 0.325264 -0.325270
vn -0.325266 0.887921 -0.325266
vn 0.887920 0.325267 -0.325268
vn 0.325262 0.325267 -0.887922
vn 0.325269 0.887919 -0.325268
vn -0.325266 -0.887921 -0.325266
vn -0.887919 -0.325269 -0.325270
vn -0.325269 -0.325267 -0.887920
vn 0.887919 -0.325267 -0.325270
vn 0.325269 -0.887920 -0.325268
vn 0.325268 -0.325267 -0.887920
s 1
g Floor
usemtl lambert30SG
f 2/1/1 1/25/2 37/66/3 42/21/4
s 2
f 1/96/5 6/22/6 38/8/7 37/43/8
s 3
f 4/2/9 3/26/10 11/90/11 10/16/12
s 1
f 3/92/13 2/1/1 12/3/14 11/30/15
s 2
f 6/22/6 5/27/16 15/82/17 14/23/18
s 3
f 5/95/19 4/2/9 16/5/20 15/32/21
s 4
f 8/4/22 7/28/23 43/61/24 48/12/25
s 1
f 7/91/26 12/3/14 44/13/27 43/46/28
s 3
f 10/16/12 9/29/29 23/80/30 22/6/31
s 4
f 9/87/32 8/4/22 24/7/33 23/36/34
s 2
f 14/23/18 13/31/35 27/72/36 26/24/37
s 5
f 13/86/38 18/17/39 28/9/40 27/38/41
f 18/17/39 17/33/42 21/77/43 20/18/44
s 3
f 17/85/45 16/5/20 22/6/31 21/35/46
s 5
f 20/18/44 19/34/47 35/70/48 34/10/49
s 4
f 19/81/50 24/7/33 36/11/51 35/42/52
s 2
f 26/24/37 25/37/53 39/62/54 38/8/7
s 6
f 25/76/55 30/19/56 40/14/57 39/44/58
f 30/19/56 29/39/59 33/67/60 32/20/61
s 5
f 29/75/62 28/9/40 34/10/49 33/41/63
s 6
f 32/20/61 31/40/64 47/60/65 46/15/66
s 4
f 31/71/67 36/11/51 48/12/25 47/48/68
s 1
f 42/21/4 41/45/69 45/57/70 44/13/27
s 6
f 41/65/71 40/14/57 46/15/66 45/47/72
s 3
f 4/2/9 10/16/12 22/6/31 16/5/20
s 5
f 18/17/39 20/18/44 34/10/49 28/9/40
s 6
f 30/19/56 32/20/61 46/15/66 40/14/57
s 1
f 42/21/4 44/13/27 12/3/14 2/1/1
s 4
f 8/4/22 48/12/25 36/11/51 24/7/33
s 2
f 38/8/7 6/22/6 14/23/18 26/24/37
f 5/27/16 6/22/6 1/96/5 49/93/73
s 1
f 1/25/2 2/1/1 3/92/13 49/49/74
s 3
f 3/26/10 4/2/9 5/95/19 49/94/75
s 1
f 11/30/15 12/3/14 7/91/26 50/88/76
s 4
f 7/28/23 8/4/22 9/87/32 50/50/77
s 3
f 9/29/29 10/16/12 11/90/11 50/89/78
s 5
f 17/33/42 18/17/39 13/86/38 51/83/79
s 2
f 13/31/35 14/23/18 15/82/17 51/51/80
s 3
f 15/32/21 16/5/20 17/85/45 51/84/81
s 4
f 23/36/34 24/7/33 19/81/50 52/78/82
s 5
f 19/34/47 20/18/44 21/77/43 52/52/83
s 3
f 21/35/46 22/6/31 23/80/30 52/79/84
s 6
f 29/39/59 30/19/56 25/76/55 53/73/85
s 2
f 25/37/53 26/24/37 27/72/36 53/53/86
s 5
f 27/38/41 28/9/40 29/75/62 53/74/87
s 4
f 35/42/52 36/11/51 31/71/67 54/68/88
s 6
f 31/40/64 32/20/61 33/67/60 54/54/89
s 5
f 33/41/63 34/10/49 35/70/48 54/69/90
s 1
f 41/45/69 42/21/4 37/66/3 55/63/91
s 2
f 37/43/8 38/8/7 39/62/54 55/55/92
s 6
f 39/44/58 40/14/57 41/65/71 55/64/93
s 4
f 47/48/68 48/12/25 43/61/24 56/58/94
s 1
f 43/46/28 44/13/27 45/57/70 56/56/95
s 6
f 45/47/72 46/15/66 47/60/65 56/59/96
